<?xml version="1.0" encoding="utf-8"?>
<!-- Generator: Adobe Illustrator 21.1.0, SVG Export Plug-In . SVG Version: 6.00 Build 0)  -->
<svg version="1.1" xmlns="http://www.w3.org/2000/svg" xmlns:xlink="http://www.w3.org/1999/xlink" x="0px" y="0px"
	 viewBox="0 0 3710 3710" enable-background="new 0 0 3710 3710" xml:space="preserve">
<g id="Background">
</g>
<g id="Illustration">
	<g>
		<path fill="#F4F7FA" d="M3211.9,2787.7c-680.6,870.5-2274.3,884.5-2715.5,400.9c-176.1-193-222.6-524.4-290.9-1011.2
			c-32.9-234.3-37.6-423.2-40.4-552.8c-9.6-440.8-14.4-661.3,56.5-811.3C424.8,384.1,1131,217.1,1587.4,209.3
			c31.9-0.6,64-0.3,96.4,0.6c534.4,15.9,1137.5,238.4,1509.5,713.8c38.4,49,74.3,100.8,107.5,155.3
			C3640.3,1637.3,3583.2,2312.9,3211.9,2787.7z"/>
		<g>
			<g>
				<g>
					<path fill="#97A6B7" d="M1903,2762.7l31,58.5c11.7,22,38.5,30.9,60,19.8l83.4-42.9c34.8,48.5,75.5,91.2,120.6,127.7l-51.9,81.3
						c-13,20.4-6.5,48.1,14.5,61.9l56.2,36.7c21.2,13.9,49.2,8.6,62.5-11.8l54.2-83.2c53.3,25.2,110,43.4,168.4,54.2l-4.4,102.8
						c-1.1,24.8,18.9,46.6,44.7,48.6l68.9,5.4c26.1,2,48.2-16.6,49.4-41.7l5.1-104.9c59.1-3.4,118.6-14.4,177.1-33.7l51.3,96.8
						c12.2,23,41.7,32.8,65.9,21.8l64.8-29.6c24.5-11.2,34.4-39.2,22.1-62.5l-51.9-97.8c53.2-33.2,100.6-72.8,141.6-117.4l97.6,60.7
						c23.5,14.6,55.4,8.6,71.2-13.5l42.2-59.1c16-22.3,9.6-52.4-14.3-67l-97.9-60.1c29.7-55.3,51.5-114.4,64.8-175.6l116.8,4.4
						c29.1,1.1,54.4-20.2,56.5-47.6l5.5-73.1c2.1-27.6-20.1-50.7-49.4-51.5l-114.9-3.3c-2.9-62.8-14.9-125.7-36.6-187l100.7-51.8
						c26.4-13.6,37.4-44.5,24.4-69l-34.5-65.1c-13-24.5-44.9-33.1-71.1-19.2l-97.6,51.5c-37.5-54.7-82.2-102.2-132.3-142.2
						l57.4-88.1c15.9-24.4,9.3-55.6-14.8-69.5l-63.9-37c-23.9-13.9-56-5.2-71.6,19.2l-55,86.1c-60.2-26.5-124-44.2-189.4-52.6
						l4.7-96.1c1.4-27.8-20-50-47.6-49.7l-73,1c-27.3,0.4-50.3,23-51.5,50.5l-4,93.6c-63.9,7.8-127.4,24.6-188.7,50.8l-41.9-79
						c-12.4-23.3-41.2-31.1-64.4-17.4l-61.3,36.2c-22.9,13.5-31.5,43.1-19.3,66.2l41.4,78.1c-52.1,39.2-97.1,84.5-134.7,134.2
						l-73.8-45.3c-21.5-13.2-49.6-5.7-62.6,16.8l-34.6,59.3c-12.9,22.2-6.2,50.8,15,64l74,46c-24.3,56.6-40.7,116-48.8,176.6
						l-87.6-2.5c-24.5-0.7-44.7,19.2-45.2,44.4l-1.3,66.8c-0.5,25,18.8,46,43.2,46.9l89.2,3.4c6.4,58.2,20.8,116.1,43.5,172.4
						l-80.7,42.7C1899.1,2713.7,1891.3,2740.7,1903,2762.7z M2194.6,2636.4c-118.4-223.3-35.5-504.8,192.1-632.7
						c235.6-132.4,535-50.6,661.1,187.1c126.1,237.7,24.6,528.9-218.8,646.7C2593.9,2951.2,2313,2859.6,2194.6,2636.4z"/>
					<polygon fill="#97A6B7" points="2534.2,1636.4 2590.6,1604 2637.7,1645 					"/>
					<polygon fill="#97A6B7" points="1977.1,1962.5 1911.1,1998.3 1937.1,2047.1 					"/>
					<polygon fill="#97A6B7" points="1849.6,2332.2 1785,2369.9 1821.1,2398.1 					"/>
					<polygon fill="#97A6B7" points="1915.2,2706.2 1851.3,2746.8 1890.2,2767.6 					"/>
					<polygon fill="#97A6B7" points="2268.9,3105 2209.1,3148.6 2173.1,3099.9 					"/>
					<polygon fill="#97A6B7" points="2643,3212 2590.5,3253.4 2563.1,3212.9 					"/>
					<polygon fill="#97A6B7" points="2988.3,3160.9 3035.6,3124 2955.3,3081.1 					"/>
					<polygon fill="#97A6B7" points="3241.2,2954.8 3295.3,2910 3218.3,2878.1 					"/>
					<polygon fill="#97A6B7" points="3005.2,1685.3 2942.9,1720.9 2992.5,1753.8 					"/>
					<polygon fill="#97A6B7" points="3395.2,2115.7 3341.6,2155.1 3321,2105.1 					"/>
					<polygon fill="#97A6B7" points="3455,2529.9 3403.1,2569.3 3378.5,2534.1 					"/>
				</g>
				<path fill="#D8DEE8" d="M1840.4,2803l31.3,59c11.8,22.2,38.8,31.1,60.5,20l84.1-43.3c35.1,48.9,76.1,92,121.6,128.8l-52.4,82
					c-13.2,20.6-6.6,48.5,14.7,62.4l56.7,37c21.4,14,49.6,8.7,63-11.9l54.7-83.9c53.8,25.4,110.9,43.8,169.8,54.6l-4.5,103.6
					c-1.1,25,19.1,46.9,45.1,49l69.5,5.4c26.3,2,48.6-16.7,49.9-42l5.1-105.7c59.5-3.4,119.6-14.5,178.5-33.9l51.7,97.5
					c12.3,23.2,42,33.1,66.4,21.9l65.3-29.8c24.7-11.3,34.7-39.5,22.3-63l-52.3-98.6c53.6-33.5,101.4-73.4,142.8-118.3l98.4,61.1
					c23.7,14.7,55.9,8.7,71.8-13.6l42.6-59.6c16.1-22.5,9.7-52.8-14.4-67.6l-98.7-60.5c29.9-55.8,52-115.4,65.4-177l117.8,4.4
					c29.4,1.1,54.9-20.4,57-48l5.5-73.7c2.1-27.8-20.3-51.1-49.8-51.9l-115.9-3.3c-2.9-63.3-15-126.7-36.9-188.5l101.6-52.3
					c26.6-13.7,37.7-44.9,24.6-69.5l-34.8-65.6c-13.1-24.7-45.2-33.3-71.7-19.3l-98.4,52c-37.8-55.1-82.9-103-133.4-143.3l57.9-88.8
					c16-24.6,9.4-56-14.9-70.1l-64.4-37.3c-24.1-14-56.4-5.3-72.2,19.3l-55.4,86.8c-60.7-26.7-125-44.6-190.9-53l4.7-96.9
					c1.4-28-20.2-50.4-48-50.1l-73.6,1c-27.5,0.4-50.8,23.2-52,51l-4.1,94.4c-64.5,7.9-128.5,24.8-190.2,51.2l-42.2-79.6
					c-12.5-23.5-41.6-31.3-64.9-17.5l-61.8,36.5c-23.1,13.6-31.7,43.5-19.4,66.7l41.8,78.8c-52.5,39.5-97.9,85.2-135.8,135.3
					l-74.4-45.6c-21.7-13.3-50-5.7-63.2,16.9l-34.9,59.8c-13,22.4-6.3,51.2,15.2,64.5l74.7,46.4c-24.5,57-41.1,117-49.2,178
					l-88.4-2.5c-24.7-0.7-45.1,19.3-45.6,44.7l-1.3,67.3c-0.5,25.2,19,46.4,43.5,47.3l89.9,3.4c6.5,58.6,20.9,117.1,43.8,173.8
					l-81.4,43C1836.6,2753.6,1828.7,2780.8,1840.4,2803z M2134.4,2675.6c-119.4-225.1-35.8-508.9,193.7-637.9
					c237.6-133.5,539.4-51,666.6,188.6c127.1,239.6,24.8,533.2-220.7,652C2537,2993,2253.8,2900.7,2134.4,2675.6z"/>
			</g>
			<g>
				<defs>
					<path id="SVGID_1_" d="M3550.4,1598.6H2083.3l-266,519l33.4,370h213.9c30,244,238.1,433.3,490.4,433.3
						c252.3,0,460.4-189.3,490.4-433.3h505V1598.6z"/>
				</defs>
				<clipPath id="SVGID_2_">
					<use xlink:href="#SVGID_1_"  overflow="visible"/>
				</clipPath>
				<g clip-path="url(#SVGID_2_)">
					
						<linearGradient id="SVGID_3_" gradientUnits="userSpaceOnUse" x1="-1571.2001" y1="3058.1736" x2="-2095.0349" y2="1727.7283" gradientTransform="matrix(1 8.500000e-03 -8.500000e-03 1 4925.8477 10.923)">
						<stop  offset="0" style="stop-color:#444B8C"/>
						<stop  offset="0.9964" style="stop-color:#26264F"/>
					</linearGradient>
					<path fill="url(#SVGID_3_)" d="M3529.7,2072.7c-5.2-113.5-77.3-186.2-95.3-203.7c-107.5-105.1-259.4-101-308-99.7
						c-172.4,4.6-211.4,90.2-331.7,58.4c-101.9-27-109.7-97.8-197.4-102.6c-91.6-5-187.8,66.6-226.3,148.1
						c-74.2,157,41.6,401.6,206.8,475.4c171.6,76.7,264.5-90,579.2-40.8c114.8,18,182,52.6,256.4,10.6
						C3495,2272.3,3533.8,2163.2,3529.7,2072.7z"/>
					
						<linearGradient id="SVGID_4_" gradientUnits="userSpaceOnUse" x1="2858.0679" y1="1756.1129" x2="2875.4119" y2="1607.9006" gradientTransform="matrix(0.9717 0.2364 -0.2364 0.9717 -36.9953 -409.5157)">
						<stop  offset="0" style="stop-color:#FFC444"/>
						<stop  offset="0.9964" style="stop-color:#F36F56"/>
					</linearGradient>
					<path fill="url(#SVGID_4_)" d="M2286.6,1913.2l35.2-13.2c0,0,13.5-38,33.5-47.3c20-9.3,68.9-12.7,68.7,10.4
						c-0.2,23.1-40.6,86.7-71.3,87.4c-30.6,0.6-64.6,11.7-64.6,11.7L2286.6,1913.2z"/>
					<g>
						
							<linearGradient id="SVGID_5_" gradientUnits="userSpaceOnUse" x1="3740.2695" y1="-485.6712" x2="3810.0273" y2="-358.582" gradientTransform="matrix(0.3957 0.9184 -0.9184 0.3957 565.3124 -1461.9485)">
							<stop  offset="0" style="stop-color:#311944"/>
							<stop  offset="1" style="stop-color:#893976"/>
						</linearGradient>
						<path fill="url(#SVGID_5_)" d="M2479.5,1913c3.2-1.4,4.6-5.1,3.3-8.2l-31.3-72.6c-1.4-3.2-5.1-4.6-8.2-3.3l-120.7,52
							c-3.2,1.4-4.6,5.1-3.3,8.2l31.3,72.6c1.4,3.2,5.1,4.6,8.2,3.3L2479.5,1913z"/>
						<g>
							
								<linearGradient id="SVGID_6_" gradientUnits="userSpaceOnUse" x1="3767.8325" y1="-356.76" x2="3859.458" y2="-356.76" gradientTransform="matrix(0.3957 0.9184 -0.9184 0.3957 565.3124 -1461.9485)">
								<stop  offset="0" style="stop-color:#311944"/>
								<stop  offset="1" style="stop-color:#893976"/>
							</linearGradient>
							<path fill="url(#SVGID_6_)" d="M2359.8,1967.4c-3.2,1.4-6.9-0.1-8.2-3.3l-31.3-72.6c-1.4-3.2,0.1-6.9,3.3-8.2l120.7-52
								c3.2-1.4,6.9,0.1,8.2,3.3l31.3,72.6c1.4,3.2-0.1,6.9-3.3,8.2L2359.8,1967.4z"/>
							<path fill="#D8DEE8" d="M2368.7,1955c-3.2,1.4-6.9-0.1-8.2-3.3l-25.1-58.2c-1.4-3.2,0.1-6.9,3.3-8.2l99.1-42.7
								c3.2-1.4,6.9,0.1,8.2,3.3l25.1,58.2c1.4,3.2-0.1,6.9-3.3,8.2L2368.7,1955z"/>
							<path fill="#FFFFFF" d="M2466.5,1881.5c-1.1,0.5-2.3,0-2.8-1.1l-6.6-15.3c-0.5-1.1,0-2.3,1.1-2.8l0.9-0.4
								c1.1-0.5,2.3,0,2.8,1.1l6.6,15.3c0.5,1.1,0,2.3-1.1,2.8L2466.5,1881.5z"/>
						</g>
					</g>
					<linearGradient id="SVGID_7_" gradientUnits="userSpaceOnUse" x1="2136.3872" y1="912.7621" x2="2136.3872" y2="3728.6809">
						<stop  offset="0" style="stop-color:#FCB148"/>
						<stop  offset="5.207239e-02" style="stop-color:#FDBA46"/>
						<stop  offset="0.1424" style="stop-color:#FFC244"/>
						<stop  offset="0.3183" style="stop-color:#FFC444"/>
						<stop  offset="0.4849" style="stop-color:#FDB946"/>
						<stop  offset="0.7754" style="stop-color:#F99C4D"/>
						<stop  offset="0.8658" style="stop-color:#F8924F"/>
						<stop  offset="1" style="stop-color:#F8924F"/>
					</linearGradient>
					<path fill="url(#SVGID_7_)" d="M2403.4,2017.7c0,0-78.7-38.9-158.3,9.8c-79.5,48.7-179.3,132.9-182.7,116.7
						c-3.4-16.2,163.6-150.7,256-179.9c-3.2-33.1-17.8-71.4-17.8-71.4c-1.5-3.8-58.1,5.4-64.3,6.3c-19.4,2.7-38.8,5.8-58.1,9.1
						c-41,7.1-81.7,16-121.4,28.5c-22.5,7.1-44.7,15.4-66.2,25.1c-29.5,13.3-61.4,28-83.1,52.8c-19.3,22-32.7,49.8-38.8,78.4
						c-8.4,38.7-12.8,83.2-2.4,121.9c5.4,20.2,15.7,43,28.9,59.5c42.6,53.1,113.6,75,178.8,77.2c63.6,2.2,135-0.5,195.5-21.6
						c59.1-20.6,103.1-55.3,123-115.9c17.2-52.5,25.2-107.3,16.3-162.1C2408.4,2049.3,2405.7,2018.8,2403.4,2017.7z"/>
					
						<linearGradient id="SVGID_8_" gradientUnits="userSpaceOnUse" x1="3078.261" y1="4316.896" x2="3191.6384" y2="4316.896" gradientTransform="matrix(-1 -8.500000e-03 -8.500000e-03 1 5463.0405 15.6603)">
						<stop  offset="0" style="stop-color:#444B8C"/>
						<stop  offset="0.9964" style="stop-color:#26264F"/>
					</linearGradient>
					<path fill="url(#SVGID_8_)" d="M2339.2,4266.9c0,0,9.1,8.7,9,23.8c0,4.5-2.1,8.8-5.8,11.7c-8.1,6.3-26,18.6-53.8,29.9
						c-39.3,16-52.5,14.4-54.1,7.9c-1.6-6.5,18.7-24.2,36.1-39.6C2288,4285.2,2339.2,4266.9,2339.2,4266.9z"/>
					
						<linearGradient id="SVGID_9_" gradientUnits="userSpaceOnUse" x1="3119.5488" y1="4368.7798" x2="3090.4282" y2="4182.6157" gradientTransform="matrix(-1 -8.500000e-03 -8.500000e-03 1 5463.0405 15.6603)">
						<stop  offset="0" style="stop-color:#311944"/>
						<stop  offset="1" style="stop-color:#893976"/>
					</linearGradient>
					<path fill="url(#SVGID_9_)" d="M2352.2,4206c0,0-12.9,59.3-12,80.9c0,0-15.8,13.7-38-0.3c0,0,11.9-54.1,6.4-76.6L2352.2,4206z"
						/>
					
						<linearGradient id="SVGID_10_" gradientUnits="userSpaceOnUse" x1="2636.2131" y1="4343.5674" x2="2741.8152" y2="4343.5674" gradientTransform="matrix(-1 -8.500000e-03 -8.500000e-03 1 5463.0405 15.6603)">
						<stop  offset="0" style="stop-color:#444B8C"/>
						<stop  offset="0.9964" style="stop-color:#26264F"/>
					</linearGradient>
					<path fill="url(#SVGID_10_)" d="M2777.8,4291c0,0,10.2,7.3,12.2,22.4c0.6,4.5-0.9,9-4.1,12.4c-7.1,7.3-23.2,22-49.1,37.1
						c-36.7,21.3-50,21.6-52.5,15.3c-2.5-6.3,15.2-26.6,30.3-44.2C2729.6,4316.2,2777.8,4291,2777.8,4291z"/>
					
						<linearGradient id="SVGID_11_" gradientUnits="userSpaceOnUse" x1="2656.6335" y1="4372.4824" x2="2653.5137" y2="4200.8784" gradientTransform="matrix(-1 -8.500000e-03 -8.500000e-03 1 5463.0405 15.6603)">
						<stop  offset="0" style="stop-color:#311944"/>
						<stop  offset="1" style="stop-color:#893976"/>
					</linearGradient>
					<path fill="url(#SVGID_11_)" d="M2796.6,4236.4c0,0-12.9,59.3-12,80.9c0,0-15.8,13.8-38-0.3c0,0,11.9-54.1,6.4-76.6
						L2796.6,4236.4z"/>
					
						<linearGradient id="SVGID_12_" gradientUnits="userSpaceOnUse" x1="2898.4548" y1="4456.0908" x2="3035.7385" y2="3351.5852" gradientTransform="matrix(-1 -8.500000e-03 -8.500000e-03 1 5463.0405 15.6603)">
						<stop  offset="0" style="stop-color:#40447E"/>
						<stop  offset="0.9964" style="stop-color:#3C3B6B"/>
					</linearGradient>
					<path fill="url(#SVGID_12_)" d="M2208.3,2964.4c-5.3,178.2-4.4,369.5,5.5,572.1c12.5,253.1,37.3,487.8,68.9,701.6
						c11.9,3.4,28.2,6.7,47.8,6.6c13.8-0.1,25.7-1.8,35.4-3.9c5.6-25.2,14.4-63.5,25.9-110c20.8-84.3,25.7-95.6,32.3-124.5
						c27.1-120.2-6.8-154.6,10.7-278.7c3.8-27.2,5.4-24.8,42.9-155.6c46.8-163.1,70.5-244.7,81.7-307.2c30-167.7,45-251.6-1.6-303.7
						C2497,2893,2354.1,2902.3,2208.3,2964.4z"/>
					
						<linearGradient id="SVGID_13_" gradientUnits="userSpaceOnUse" x1="2897.2439" y1="4455.9404" x2="3034.5276" y2="3351.4346" gradientTransform="matrix(-1 -8.500000e-03 -8.500000e-03 1 5463.0405 15.6603)">
						<stop  offset="0" style="stop-color:#40447E"/>
						<stop  offset="0.9964" style="stop-color:#3C3B6B"/>
					</linearGradient>
					<path opacity="0.3" fill="url(#SVGID_13_)" d="M2323.2,4136.5c20-55.2-14-83.6-13-179c0.8-82.3,26.5-92.4,34.9-184.8
						c7.7-84.8-10.8-109.1-15-187.3c-7.9-147.5,50.8-196.5,63-309.4c8.4-77.8-4.7-191.1-107.2-339.6
						c116.8-34.9,222.1-31.2,272.1,24.8c46.6,52.2,31.6,136,1.6,303.7c-11.2,62.5-34.8,144-81.7,307.2
						c-37.6,130.9-39.1,128.4-42.9,155.6c-17.5,124.1,16.4,158.4-10.7,278.7c-6.5,29-11.5,40.2-32.3,124.5
						c-11.5,46.6-20.3,84.9-25.9,110c-9.6,2.1-21.6,3.8-35.4,3.9c-19.5,0.1-35.9-3.2-47.8-6.6c-1.9-13.1-3.8-26.2-5.7-39.4
						C2296.9,4182.5,2313.9,4162.2,2323.2,4136.5z"/>
					
						<linearGradient id="SVGID_14_" gradientUnits="userSpaceOnUse" x1="2435.8477" y1="3364.9919" x2="2950.6448" y2="3692.5903" gradientTransform="matrix(-1 -8.500000e-03 -8.500000e-03 1 5463.0405 15.6603)">
						<stop  offset="0" style="stop-color:#40447E"/>
						<stop  offset="0.9964" style="stop-color:#3C3B6B"/>
					</linearGradient>
					<path fill="url(#SVGID_14_)" d="M2399.8,2953.5c69.9,194.8,137.8,411.3,197.9,648c58.4,230.2,101,447,132.3,646.7
						c9.3,4.3,26.9,11.1,49.8,10.8c19.6-0.2,34.9-5.5,43.8-9.4c23.6-58.3,48.3-134.1,63.3-224.9c9.6-58.3,20.2-121.8,13.1-203.5
						c-9.4-108.6-39.1-126-52.1-233.4c-9.7-80.3,3.8-96,8-212.1c6.5-180.1,9.9-272.9-34.6-337.3
						C2725.8,2899.8,2446.2,2945.5,2399.8,2953.5z"/>
					<linearGradient id="SVGID_15_" gradientUnits="userSpaceOnUse" x1="2620.5093" y1="825.4216" x2="2620.5093" y2="3816.1655">
						<stop  offset="0" style="stop-color:#FCB148"/>
						<stop  offset="5.207239e-02" style="stop-color:#FDBA46"/>
						<stop  offset="0.1424" style="stop-color:#FFC244"/>
						<stop  offset="0.3183" style="stop-color:#FFC444"/>
						<stop  offset="0.4849" style="stop-color:#FDB946"/>
						<stop  offset="0.7754" style="stop-color:#F99C4D"/>
						<stop  offset="0.8658" style="stop-color:#F8924F"/>
						<stop  offset="1" style="stop-color:#F8924F"/>
					</linearGradient>
					<path fill="url(#SVGID_15_)" d="M2979.3,3208.6c-57.7,33.5-113.8,43.9-158.3,48.8c-9.7,1.1-18.9,1.9-27.4,2.6
						c-86.6,7.4-100.7-11.2-246-23.5c-108.8-9.2-170.3-14.4-252.3-2.8c-113.5,16-149.5,47.8-176.6,25
						c-35.7-30,11.9-106.4,42.1-277.1c21-118.6,3.8-112.8,23.6-249.8c25.8-179.4,58-209.1,73.3-335.1c9.1-74.5,10-207.4-24-350.2
						c38.7-21.9,175-70.2,351.7-42.5c22.3,3.5,43.4,8.2,63.5,14c18.2-11.1,43.5,2.3,91.2,2.4c72,0.1,73,135.8,59.9,229.2
						c-6.6,47.4-16.9,83.9-23.3,86.2c-72.5,126.7-71.6,203.8-47.9,253.3c23.8,49.8,68.3,66.7,115.7,164.7
						c46.9,97.3,27,130.3,69.4,173c76.1,76.7,192.2,23.2,217.2,75.7C3155.5,3053.9,3068,3157.1,2979.3,3208.6z"/>
					<g>
						
							<linearGradient id="SVGID_16_" gradientUnits="userSpaceOnUse" x1="3017.2661" y1="1780.0511" x2="2845.5056" y2="2106.917" gradientTransform="matrix(-1 -8.500000e-03 -8.500000e-03 1 5463.0405 15.6603)">
							<stop  offset="0" style="stop-color:#FFC444"/>
							<stop  offset="0.9964" style="stop-color:#F36F56"/>
						</linearGradient>
						<path fill="url(#SVGID_16_)" d="M2551.5,1877.9c-5.6,15.1,6.7,48.5,22.8,78.9c14.1,26.6,40.5,38.4,51.1,43.3
							c25.6,11.7,41,8.4,41.7,13.3c1.4,10.7-72,44.8-147.6,28.9c-44.4-9.3-86.3-35.2-83.4-49.5c3.3-16,60.3-4.4,80.3-35.3
							c12.7-19.8,4.7-48.2-5.4-71C2525.7,1874.2,2536.6,1890.2,2551.5,1877.9z"/>
						<g>
							
								<linearGradient id="SVGID_17_" gradientUnits="userSpaceOnUse" x1="1828.6796" y1="-396.4064" x2="1772.6569" y2="-514.1979" gradientTransform="matrix(-1 -8.500000e-03 -8.500000e-03 1 5463.0405 15.6603)">
								<stop  offset="0" style="stop-color:#FFC444"/>
								<stop  offset="0.9964" style="stop-color:#F36F56"/>
							</linearGradient>
							<path fill="url(#SVGID_17_)" d="M2553.8,1932.3c0,0-26.2,32-65.5,20.8c-35.1-10-25.1-99,0.8-112.9c8.6-4.6,24.3-4.1,35.9,2.3
								c6.9,3.8,8.8,7.6,20.2,13.5c10.5,5.5,13.9,4.8,16.7,8.5c3.5,4.7,4.9,14.9-6.5,39.2c8.1-6.2,16.8-7.4,22-3.2
								c0.8,0.7,3,3,3.9,6.1C2584.6,1917.7,2574.1,1928.8,2553.8,1932.3z"/>
						</g>
					</g>
					<g>
						<linearGradient id="SVGID_18_" gradientUnits="userSpaceOnUse" x1="3016.0781" y1="2237.115" x2="1746.1758" y2="6500.3691">
							<stop  offset="0" style="stop-color:#FCB148"/>
							<stop  offset="5.207239e-02" style="stop-color:#FDBA46"/>
							<stop  offset="0.1424" style="stop-color:#FFC244"/>
							<stop  offset="0.3183" style="stop-color:#FFC444"/>
							<stop  offset="0.4849" style="stop-color:#FDB946"/>
							<stop  offset="0.7754" style="stop-color:#F99C4D"/>
							<stop  offset="0.8658" style="stop-color:#F8924F"/>
							<stop  offset="1" style="stop-color:#F8924F"/>
						</linearGradient>
						<path opacity="0.5" fill="url(#SVGID_18_)" d="M2979.3,3208.6c-57.7,33.5-113.8,43.9-158.3,48.8c1.6-50.2-8.8-89-23.8-119.3
							c-62.9-126.9-222.4-139.2-229.6-240.3c-5.2-73.9,78.9-83.9,112.4-190.4c50.3-160.1-100.6-263-47.2-373
							c26.2-53.8,74.3-53.8,167.2-84.9c-6.6,47.4-16.9,83.9-23.3,86.2c-72.5,126.7-71.6,203.8-47.9,253.3
							c23.8,49.8,68.3,66.7,115.7,164.7c46.9,97.3,27,130.3,69.4,173c76.1,76.7,192.2,23.2,217.2,75.7
							C3155.5,3053.9,3068,3157.1,2979.3,3208.6z"/>
					</g>
					
						<linearGradient id="SVGID_19_" gradientUnits="userSpaceOnUse" x1="2975.3596" y1="1920.1853" x2="2982.6523" y2="1857.8641" gradientTransform="matrix(0.9951 -9.890000e-02 9.890000e-02 0.9951 -775.9341 275.2649)">
						<stop  offset="0" style="stop-color:#FFC444"/>
						<stop  offset="0.9964" style="stop-color:#F36F56"/>
					</linearGradient>
					<path fill="url(#SVGID_19_)" d="M2338.9,1880.1c0,0,10.6,2.7,14.2,10.3s34.5-2.9,50-20s9.2-41.4-0.8-39.5s-59.6,5.6-64.3,46.8
						L2338.9,1880.1z"/>
					<path fill="#FFFFFF" d="M2465.7,1901c0,0,53.3,17.2,92-2.2c-1.9,6.8-43.6,33.4-29.6,35.9c14,2.5,26.8-2.6,26.8-2.6
						s-26.4,29.2-59.1,26.3C2463.1,1955.6,2461.8,1911.4,2465.7,1901z"/>
					<linearGradient id="SVGID_20_" gradientUnits="userSpaceOnUse" x1="2759.1333" y1="825.4016" x2="2759.1333" y2="3816.1697">
						<stop  offset="0" style="stop-color:#FCB148"/>
						<stop  offset="5.207239e-02" style="stop-color:#FDBA46"/>
						<stop  offset="0.1424" style="stop-color:#FFC244"/>
						<stop  offset="0.3183" style="stop-color:#FFC444"/>
						<stop  offset="0.4849" style="stop-color:#FDB946"/>
						<stop  offset="0.7754" style="stop-color:#F99C4D"/>
						<stop  offset="0.8658" style="stop-color:#F8924F"/>
						<stop  offset="1" style="stop-color:#F8924F"/>
					</linearGradient>
					<path fill="url(#SVGID_20_)" d="M2627.7,2880.4c138.5-111.2,199.4-276.8,154-404.2c-21.9-61.5-84.9-160-186.3-198.9
						c-48.3-18.5-77.7-12.8-89-35.1c-28.8-56.6,93.5-224.5,210.1-226c151.7-2,339,277,292,528.9c-44.7,239.5-282,351.2-311.8,364.7
						C2673.8,2900,2650.8,2890.2,2627.7,2880.4z"/>
				</g>
			</g>
		</g>
		<g>
			<linearGradient id="SVGID_21_" gradientUnits="userSpaceOnUse" x1="2366.2703" y1="3193.7053" x2="3198.9739" y2="3193.7053">
				<stop  offset="0" style="stop-color:#FF9085"/>
				<stop  offset="1" style="stop-color:#FB6FBB"/>
			</linearGradient>
			<path fill="url(#SVGID_21_)" d="M3066,3340.5c-34.2,20.4-69.8,38.4-105.3,56.4c36.6-12,191.4-69.1,193.9,13.8
				c0.1,3,0,5.8-0.4,8.5c-7.3,59.5-112.9,58.5-154.2,58.4c-50.4-0.1-99.9,0.7-149.6-2.3c-5.7-0.3-11.4-0.7-17.2-1.2
				c-6.6-0.5-13.2-1.1-19.9-1.8c-8.3-0.8-16.5-1.8-24.8-3l-3.9-2.2c-6.3,1-12.6,1.9-18.9,2.7c-6.1,0.8-12.2,1.6-18.2,2.3
				c-16.1,1.8-32,3.1-47.9,3.8c-55.2,2.7-109.4-1.1-166.2-12.9c-38.7-8.1-77.5-21.1-109.1-45.4c-28-21.5-80.1-89.4-48.1-126.3
				c2-2.4,4.4-4.6,7.2-6.7c40.9-30.9,113.5,30.7,144.7,52.6c7.6,5.3,39,34,49.6,30.6c9.7-3.2-2.5-15.4-7-20.9
				c-34-41.6-83.5-67.6-117-109.8c-28.7-36.1-58.7-113.1-16.3-151.3c4.8-4.3,9.6-7.2,14.5-8.9c50.7-18.2,108.5,87.2,125.5,117.4
				c19.2,34.1,34.8,71.3,57.2,103.5c8.8,12.6,20.7,28.4,30.7,9.5c11.5-21.8,2.8-60.5-1.3-82.9c-7-37.9-20.2-74-34.6-109.7
				c-23.3-57.8-53.5-123.7,5.1-171.1c14.9-12.1,35.6-22.1,57.8-26.2h0c45-16.5,96.1-8.8,116.7,34.7c16.3,34.3,7.6,76,0.3,111.4
				c-9,43.4-21.9,85.7-26.2,130c-2.4,24.8-5.1,61.9,12.7,82.5c11.9,13.9,24.4,9.7,32.3-5.6c12.5-24.7,8.9-59.6,9.6-86.2
				c1-37.6,2.7-76.6,17.8-111.6c16.5-38.2,74.9-89.5,121.5-76.3c9.4,2.6,18.4,7.9,26.4,16.5c47.8,51-42.2,162.1-67.4,204.6
				c-17.1,28.9-41,62.7-46.7,96.6c-3.4,19.8,5.2,22.3,20.4,11c26.7-19.9,46.7-51.5,67.4-77.1c26.6-32.9,54.4-66.7,89.3-91.1
				c34.6-24.2,100.7-39.5,124-1.1c4.6,7.6,7.6,17.4,8.3,29.6C3202.8,3256.4,3118.1,3309.5,3066,3340.5z"/>
			<path opacity="0.5" fill="#FFFFFF" d="M2977.2,2996.4c-3.9,4.7-8.1,9.5-12.8,14.5c-73.4,77.2-75.3,125.5-106.2,253
				c-20,82.4-35.9,162.4-44.7,208.6c-8.3-0.8-16.5-1.8-24.8-3l-3.9-2.2c-6.3,1-12.6,1.9-18.9,2.7c2.8-28.1,0.1-75-41-105.7
				c-61.8-46.3-34.8-142.9-19.3-200.9c15.4-57.9,0-90.6-32.8-150.4c-18.2-33.3-0.1-70.6,19.6-95.4h0c45-16.5,96.1-8.8,116.7,34.7
				c16.3,34.3,7.6,76,0.3,111.4c-9,43.4-21.9,85.7-26.2,130c-2.4,24.8-5.1,61.9,12.7,82.5c11.9,13.9,24.4,9.7,32.3-5.6
				c12.5-24.7,8.9-59.6,9.6-86.2c1-37.6,2.7-76.6,17.8-111.6C2872.1,3034.5,2930.5,2983.3,2977.2,2996.4z"/>
			<path opacity="0.5" fill="#FFFFFF" d="M3066,3340.5c-34.2,20.4-69.8,38.4-105.3,56.4c36.6-12,191.4-69.1,193.9,13.8
				c0.1,3,0,5.8-0.4,8.5c-16.8,1.6-34.6,0-48.7-9.2c-37.7-24.6-41.3,8.7-77.5,20.3s-99.2-4.3-133.2,20.3
				c-16.9,12.2-32.7,20-44.3,24.8c-5.7-0.3-11.4-0.7-17.2-1.2c6.5-21,28.4-79.2,77-104.2c59.9-30.9,92.7-40.6,112-104.3
				c16.9-55.7,85.5-107,168.3-110c4.6,7.6,7.6,17.4,8.3,29.6C3202.8,3256.4,3118.1,3309.5,3066,3340.5z"/>
			<path opacity="0.5" fill="#FFFFFF" d="M2747.6,3472.3c-16.1,1.8-32,3.1-47.9,3.8c-2.5-11.4,15.6-26.3-34.5-37
				c-81.8-17.4-128.5,15.1-160-62.3c-23.7-58.2-82.2-96.1-128.9-85.4c2-2.4,4.4-4.6,7.2-6.7c40.9-30.9,113.5,30.7,144.7,52.6
				c7.6,5.3,39,34,49.6,30.6c9.7-3.2-2.5-15.4-7-20.9c-34-41.6-83.5-67.6-117-109.8c-28.7-36.1-58.7-113.1-16.3-151.3
				c4.8-4.3,9.6-7.2,14.5-8.9c-2.1,36.6,3.4,97.4,54.6,133.2c76.8,53.6,89.8,98.5,92.7,127.5
				C2602,3364.8,2722.4,3386.8,2747.6,3472.3z"/>
		</g>
		<g>
			
				<linearGradient id="SVGID_22_" gradientUnits="userSpaceOnUse" x1="6494.1973" y1="3162.9712" x2="6548.3491" y2="3109.5818" gradientTransform="matrix(-1 0 0 1 6905.2178 0)">
				<stop  offset="0" style="stop-color:#FCB148"/>
				<stop  offset="5.207239e-02" style="stop-color:#FDBA46"/>
				<stop  offset="0.1424" style="stop-color:#FFC244"/>
				<stop  offset="0.3183" style="stop-color:#FFC444"/>
				<stop  offset="0.4849" style="stop-color:#FDB946"/>
				<stop  offset="0.7754" style="stop-color:#F99C4D"/>
				<stop  offset="0.8658" style="stop-color:#F8924F"/>
				<stop  offset="1" style="stop-color:#F8924F"/>
			</linearGradient>
			<path fill="url(#SVGID_22_)" d="M307.9,3171.5H349l51-129.6C400,3041.9,306.5,3048.4,307.9,3171.5z"/>
			<path fill="#034E96" d="M1269,3395.7l-268-49.7c0,0-24.3-206.9,95.5-226.5C1216.3,3099.8,1280.6,3260.1,1269,3395.7z"/>
			<g>
				
					<linearGradient id="SVGID_23_" gradientUnits="userSpaceOnUse" x1="5562.562" y1="3312.21" x2="5797.4712" y2="3312.21" gradientTransform="matrix(-1 0 0 1 6905.2178 0)">
					<stop  offset="0" style="stop-color:#444B8C"/>
					<stop  offset="0.9964" style="stop-color:#3E4177"/>
				</linearGradient>
				<path fill="url(#SVGID_23_)" d="M1255.8,3152.3C1255.8,3152.3,1255.9,3152.3,1255.8,3152.3c8.5,0.8,16.1,4.1,23.7,8.8
					c7.3,3.7,16.2,8.1,16.2,13.7v0.1c28.2,29.4,46.8,83.6,46.9,144.4c0.1,80.9-32.8,146.3-76.2,153.9c0,0,0.1,0,0.1,0
					c-2.9,0.4-39.3,13.6-154,0.6c-3-49.2-4.8-328-4.8-328S1199.4,3141.1,1255.8,3152.3z"/>
				<g>
					
						<linearGradient id="SVGID_24_" gradientUnits="userSpaceOnUse" x1="5931.3159" y1="3024.093" x2="5692.1372" y2="3492.9917" gradientTransform="matrix(-1 0 0 1 6905.2178 0)">
						<stop  offset="0" style="stop-color:#EBEFF2"/>
						<stop  offset="0.9946" style="stop-color:#B7C0CE"/>
					</linearGradient>
					<path fill="url(#SVGID_24_)" d="M1026.9,3303.8c0,92.6,42.8,169.2,94.8,171.2c50.9,1.9,91.4-69.1,91.3-158.5
						c-0.1-89.3-40.7-165.6-91.5-170.6C1069.7,3140.7,1026.9,3211.4,1026.9,3303.8z"/>
					<path fill="#FFFFFF" d="M1067.5,3305.9c0,65.7,28.6,120.3,63.4,121.9c34.3,1.6,61.8-49.2,61.7-113.3
						c-0.1-64.1-27.6-118.5-61.9-121.6C1096,3189.7,1067.5,3240.3,1067.5,3305.9z"/>
				</g>
			</g>
			<g>
				
					<linearGradient id="SVGID_25_" gradientUnits="userSpaceOnUse" x1="6332.0586" y1="3191.5049" x2="6524.3281" y2="3191.5049" gradientTransform="matrix(-1 0 0 1 6905.2178 0)">
					<stop  offset="0" style="stop-color:#444B8C"/>
					<stop  offset="0.9964" style="stop-color:#3E4177"/>
				</linearGradient>
				<path fill="url(#SVGID_25_)" d="M500.9,3053.8C500.9,3053.8,500.9,3053.8,500.9,3053.8c6.9,0.7,14.9,3.5,21.1,7.6
					c5.9,3.2,4.4,7,14.9,11.8v0.1c17.6,25.3,36.2,72,36.3,124.4c0.1,69.7-27.5,126-62.7,132.5c0,0-0.4,0-0.4,0
					c-2.4,0.4-32.1,11.7-125.1,0.5c-2.5-42.4-4-282.6-4-282.6S455.1,3044.1,500.9,3053.8z"/>
				<g>
					
						<linearGradient id="SVGID_26_" gradientUnits="userSpaceOnUse" x1="6639.731" y1="2944.5259" x2="6434.709" y2="3346.4614" gradientTransform="matrix(-1 0 0 1 6905.2178 0)">
						<stop  offset="0" style="stop-color:#EBEFF2"/>
						<stop  offset="0.9946" style="stop-color:#B7C0CE"/>
					</linearGradient>
					<path fill="url(#SVGID_26_)" d="M315.2,3184.3c0,79.7,34.8,145.8,76.9,147.4c41.3,1.6,74.2-59.5,74.1-136.5
						c-0.1-76.9-33-142.6-74.2-147C349.9,3043.8,315.2,3104.6,315.2,3184.3z"/>
					<path fill="#FFFFFF" d="M348.1,3186.1c0,56.6,23.2,103.6,51.4,105c27.9,1.4,50.1-42.4,50.1-97.6c0-55.2-22.4-102.1-50.2-104.8
						C371.2,3086,348.1,3129.6,348.1,3186.1z"/>
				</g>
			</g>
			<g>
				
					<linearGradient id="SVGID_27_" gradientUnits="userSpaceOnUse" x1="4528.5283" y1="3282.4141" x2="4814.6987" y2="3282.4141" gradientTransform="matrix(-1 0 0 1 6905.2178 0)">
					<stop  offset="0" style="stop-color:#444B8C"/>
					<stop  offset="0.9964" style="stop-color:#3E4177"/>
				</linearGradient>
				<path fill="url(#SVGID_27_)" d="M2269.2,3087.2c0,0,0.1,0,0.1,0c10.4,0,18.3,5.2,27.8,9.9c9.2,3.5,15.1,10.6,18.6,16.6v0.1
					c38.8,31.5,61,94.6,61,167.2c0,96.7-41.2,176.3-95.6,187.3c0,0,0.5,0.1,0.5,0.1c-3.6,0.6-48.3,17.6-185.7,7.5
					c-3.5-56.1-5.4-376.9-5.4-376.9S2200,3080.2,2269.2,3087.2z"/>
				<g>
					
						<linearGradient id="SVGID_28_" gradientUnits="userSpaceOnUse" x1="4964.2285" y1="2963.2622" x2="4692.6519" y2="3495.6753" gradientTransform="matrix(-1 0 0 1 6905.2178 0)">
						<stop  offset="0" style="stop-color:#444B8C"/>
						<stop  offset="0.9964" style="stop-color:#3E4177"/>
					</linearGradient>
					<ellipse fill="url(#SVGID_28_)" cx="2106.8" cy="3288.3" rx="109.5" ry="188.6"/>
					
						<linearGradient id="SVGID_29_" gradientUnits="userSpaceOnUse" x1="4713.6577" y1="3287.5261" x2="4861.4556" y2="3287.5261" gradientTransform="matrix(-1 0 0 1 6905.2178 0)">
						<stop  offset="0" style="stop-color:#444B8C"/>
						<stop  offset="0.9964" style="stop-color:#3E4177"/>
					</linearGradient>
					<ellipse fill="url(#SVGID_29_)" cx="2117.7" cy="3287.5" rx="73.9" ry="134.8"/>
				</g>
			</g>
			<path fill="#032B70" d="M272.4,3098.9c-3.8,17.3,1.1,35.5,13.1,48.5l22.3,24.1c6.1-71.2,43-126,87.6-126
				c48.8,0,88.5,65.8,88.5,146.9c0,19.2-2.2,37.6-6.3,54.4l9.8,4l526.8,97.6c-1.4-10.9-4.1-22.1-4.1-33.5c0-10.3-0.2-20.4-0.2-30.3
				c0-0.1,0-0.1,0-0.1c17.6-84,60.6-147.9,119.6-147.9c66,0,120.4,79.9,120.4,178.4c0,26.9-3.6,52.4-10.7,75.3l78.8,14.6
				c0.1,0.1,0.3,1.7,0.5,1.9c2.5,2.7,21.5,19.5,114.6,19.5h1027.4c46.5,0,81.2-40.6,81.2-87v-3.8c0-17.8-8.6-34.1-24.5-42.1
				c0,0,28.4-81.5,5.9-179c-9-38.9-25.6-80.4-55.6-120.3c-17.4-23.1-38.9-45.7-66-66.9c0,0-116.9-97-331.4-122.2
				c0,0-177.8-129.2-340.5-214.9c-80.2-42.3-168.1-63.8-258.8-63.8H876c-103.2,0-204.5,28.8-292.3,83.1l-154.9,95.7
				c0,0-37,22-74.7,74.8c-42.9,60-86.7,159.8-78.1,311.9L272.4,3098.9L272.4,3098.9z"/>
			<path fill="#034E96" d="M1318.2,3404.7c0.1,0.1,0.2,1.7,0.4,1.9c7.2,4.5,16.2,26.5,254.5,19.5h887.3c46.5,0,81.2-40.6,81.2-87
				v-3.8c0-1,1.4-2,1.4-3.1c-1-16.6-10.1-31.5-25.1-39l-1033.2,9.8c0,0-97.4-17.7-130.9-0.3c-4.7,2.5-8,5.6-9.7,9.6
				C1330.1,3344.6,1311.7,3389.6,1318.2,3404.7z"/>
			<g opacity="0.8">
				<path fill="#FFFFFF" d="M2284.6,3116.2v13.5c0,10.5,4.3,20.4,11.8,27.7c7.5,7.2,17.7,11.1,28.1,10.6l110.5-4.7
					c26.5-1.1,51.7-12.2,70.5-30.9l18.2-18.2c-9-38.9-26-80.4-56-120.3c-0.4,0.1-0.8,0.1-1.2,0.1l-53,41.9
					c-28.1,22.2-61.4,36.8-96.7,42.4C2298.3,3081.3,2284.6,3097.4,2284.6,3116.2z"/>
			</g>
			<g opacity="0.2">
				
					<linearGradient id="SVGID_30_" gradientUnits="userSpaceOnUse" x1="4644.0591" y1="3100.8953" x2="5115.8911" y2="3100.8953" gradientTransform="matrix(-1 0 0 1 6905.2178 0)">
					<stop  offset="0" style="stop-color:#AA80F9"/>
					<stop  offset="0.9964" style="stop-color:#6165D7"/>
				</linearGradient>
				<path fill="url(#SVGID_30_)" d="M1794.1,3100.8c7.3,8.7,19.4,15.9,26.9,15.9c138,0,275.9,0,413.7,0c7.5,0,18.1-7.1,23.6-15.8
					l0,0c5.4-8.7,2.9-15.6-5.5-15.6c-151.9,0-304,0-456.3,0C1788,3085.2,1786.8,3092.1,1794.1,3100.8L1794.1,3100.8z"/>
				
					<linearGradient id="SVGID_31_" gradientUnits="userSpaceOnUse" x1="4678.1787" y1="3157.3682" x2="5070.4077" y2="3157.3682" gradientTransform="matrix(-1 0 0 1 6905.2178 0)">
					<stop  offset="0" style="stop-color:#AA80F9"/>
					<stop  offset="0.9964" style="stop-color:#6165D7"/>
				</linearGradient>
				<path fill="url(#SVGID_31_)" d="M1840.7,3157.3c7.7,9.1,18.8,16.7,25,16.6c112.2,0,224.2-0.1,336.2-0.1
					c6.1,0,15.7-7.5,21.5-16.6l0,0c5.7-9.1,4.5-16.4-2.5-16.4c-126.9,0-253.8,0.1-381,0.1
					C1832.8,3140.9,1833.1,3148.2,1840.7,3157.3C1840.7,3157.3,1840.7,3157.3,1840.7,3157.3z"/>
			</g>
			<path opacity="0.8" fill="#FFFFFF" d="M1674,3170.8c25.2-0.6,45.3-18.9,45.3-41.2V3116c0-21.2-18.3-38.9-42.1-41l-44.9-3.9
				l-267.4-70.4l5.9,33.7c8.9,50.9,47.8,93.8,102,112.4l39.7,13.6c26.1,9,54.1,13.2,82.1,12.5L1674,3170.8z"/>
			<path fill="#03359E" d="M1354,3303.7l111.5,30.6h1078.9c-1-17.6-10.9-32.5-25.9-40.1l-1033.5,9.8
				C1485.1,3304,1387.4,3286.2,1354,3303.7z"/>
			<g>
				<path fill="#034E96" d="M651.4,3228.4c0.1,0,0.1,0,0.2,0c3.6-7.1,6.4-4.9,6.3-8.5c-0.1-2.2-6.4-219.3,0-307.4
					c5.5-76.3,18.3-90.1,19.4-91.1c2.8-1.6,4.1-5.2,2.9-8.3c-1.3-3.3-5.1-5.1-8.4-3.7c-4.7,1.9-20.5,14.7-26.8,101.4
					c-6.4,88.7-0.1,307.4,0,309.5C645,3223.9,647.9,3228.4,651.4,3228.4z"/>
			</g>
			
				<linearGradient id="SVGID_32_" gradientUnits="userSpaceOnUse" x1="6000.0229" y1="3458.9968" x2="6619.1299" y2="2848.6086" gradientTransform="matrix(-1 0 0 1 6905.2178 0)">
				<stop  offset="0" style="stop-color:#AA80F9"/>
				<stop  offset="0.9964" style="stop-color:#6165D7"/>
			</linearGradient>
			<path opacity="0.2" fill="url(#SVGID_32_)" d="M272.4,3098.9l3.6-7.3c-8.6-152.2,35.1-251.9,78-311.9c27,1.6,63.2,15,60.5,76.4
				c-4.3,96.9,15.1,147,88.7,191.3c35,21,73.3,39.1,104.3,65.9c27.7,24.1,40.6,61,68.8,83.6c47.7,38.2,112.5,21.3,168,18.7
				c50.6-2.3,165.4-4.7,165.4,68.9c0,0.1,0,0.1,0,0.1c0,9.9,0.2,20,0.2,30.3c0,11.4,2.7,22.7,4.2,33.5l-526.8-97.6l-9.8-4
				c4.1-16.8,6.3-35.2,6.3-54.4c0-81.1-39.7-146.9-88.5-146.9c-44.6,0-81.5,54.8-87.6,126l-22.3-24.2
				C273.5,3134.4,268.6,3116.3,272.4,3098.9z"/>
			<g>
				<g>
					
						<linearGradient id="SVGID_33_" gradientUnits="userSpaceOnUse" x1="4880.6221" y1="2690.1863" x2="5920.6567" y2="2690.1863" gradientTransform="matrix(-1 0 0 1 6905.2178 0)">
						<stop  offset="0" style="stop-color:#444B8C"/>
						<stop  offset="0.9964" style="stop-color:#3E4177"/>
					</linearGradient>
					<path fill="url(#SVGID_33_)" d="M984.6,2572c0,0,69.4,177.5,86.6,203.5c1.6,2.4,3.7,6,6.2,8.1c24,20,82.7,24.9,82.7,24.9h864.5
						c-192.9-148.2-357.5-236.5-357.5-236.5H984.6z"/>
					<g>
						
							<linearGradient id="SVGID_34_" gradientUnits="userSpaceOnUse" x1="6107.665" y1="2681.4055" x2="6452.0493" y2="2681.4055" gradientTransform="matrix(-1 0 0 1 6905.2178 0)">
							<stop  offset="0" style="stop-color:#444B8C"/>
							<stop  offset="0.9964" style="stop-color:#3E4177"/>
						</linearGradient>
						<path fill="url(#SVGID_34_)" d="M453.2,2721.1c0,0,92.2,37.7,216.1,73.2c4-19.1,10.5-43.1,21-69.5
							c19.2-48.8,51.9-106,107.3-156.3c-42.8,3.1-93,11.4-145.9,29.9C586.7,2621,517.7,2658.9,453.2,2721.1z"/>
						
							<linearGradient id="SVGID_35_" gradientUnits="userSpaceOnUse" x1="5862.1543" y1="2711.5264" x2="6204.1968" y2="2711.5264" gradientTransform="matrix(-1 0 0 1 6905.2178 0)">
							<stop  offset="0" style="stop-color:#444B8C"/>
							<stop  offset="0.9964" style="stop-color:#3E4177"/>
						</linearGradient>
						<path fill="url(#SVGID_35_)" d="M701,2803.2c61.8,16.7,129.6,32.2,197,42.1c38.4,5.6,76.5,9.4,113.2,10.5
							c10.7,0.3,21.4,0.5,31.9,0.3c0,0,0-0.1-0.1-0.1c-1.6-6.9-67.3-276.3-128.3-284.3c-14-1.8-36.2-4.2-64.2-4.6
							c-65.8,48.7-103.9,109.2-125.8,160.9C712.5,2757,705.2,2783.3,701,2803.2z"/>
					</g>
				</g>
				
					<linearGradient id="SVGID_36_" gradientUnits="userSpaceOnUse" x1="5107.8184" y1="3038.8635" x2="5602.8086" y2="2550.8442" gradientTransform="matrix(-1 0 0 1 6905.2178 0)">
					<stop  offset="0" style="stop-color:#444B8C"/>
					<stop  offset="0.9964" style="stop-color:#3E4177"/>
				</linearGradient>
				<path opacity="0.3" fill="url(#SVGID_36_)" d="M1077.4,2783.4c24,20,82.7,25,82.7,25h864.5
					c-192.9-148.2-357.5-236.5-357.5-236.5h-12.2c-19.1,7.1-37.8,24.1-54.4,47.7C1533.6,2715,1164,2642.7,1077.4,2783.4z"/>
				
					<linearGradient id="SVGID_37_" gradientUnits="userSpaceOnUse" x1="5869.9072" y1="2863.864" x2="5886.2222" y2="2847.7788" gradientTransform="matrix(-1 0 0 1 6905.2178 0)">
					<stop  offset="0" style="stop-color:#444B8C"/>
					<stop  offset="0.9964" style="stop-color:#3E4177"/>
				</linearGradient>
				<path opacity="0.3" fill="url(#SVGID_37_)" d="M1011.2,2855.7c10.7,0.3,21.4,0.5,31.9,0.3c0,0,0-0.1-0.1-0.1
					C1034.4,2855.8,1023.6,2855.7,1011.2,2855.7z"/>
				
					<linearGradient id="SVGID_38_" gradientUnits="userSpaceOnUse" x1="6040.0381" y1="2878.4751" x2="6186.5054" y2="2734.0706" gradientTransform="matrix(-1 0 0 1 6905.2178 0)">
					<stop  offset="0" style="stop-color:#444B8C"/>
					<stop  offset="0.9964" style="stop-color:#3E4177"/>
				</linearGradient>
				<path opacity="0.3" fill="url(#SVGID_38_)" d="M724.7,2727.9c-12.3,29.1-19.5,55.3-23.7,75.2c61.8,16.7,129.6,32.2,197,42.1
					c-9.5-9.4-18.3-21.3-25.9-36.2C838.6,2744.3,779.5,2733.2,724.7,2727.9z"/>
				
					<linearGradient id="SVGID_39_" gradientUnits="userSpaceOnUse" x1="6226.2705" y1="2784.5298" x2="6372.4619" y2="2640.397" gradientTransform="matrix(-1 0 0 1 6905.2178 0)">
					<stop  offset="0" style="stop-color:#444B8C"/>
					<stop  offset="0.9964" style="stop-color:#3E4177"/>
				</linearGradient>
				<path opacity="0.3" fill="url(#SVGID_39_)" d="M453.2,2721.1c0,0,92.2,37.7,216.1,73.2c4-19.1,10.5-43.1,21-69.5
					c-33-3.3-61.6-8.5-77.9-28.1c-28.6-34.6,6.9-73.3,39.2-98.3C586.7,2621,517.7,2658.9,453.2,2721.1z"/>
			</g>
			<g>
				<path fill="#03359E" d="M1045.4,2868.7c0,0-27.4-108-66.3-112.3c-38.9-4.3-149.8-36-159.9,17.3c-10.1,53.3,10.1,79.9,66.3,83.1
					c56.2,3.3,93.6,0,93.6,0l25.9,27.8C1005.1,2884.5,1046.9,2913.3,1045.4,2868.7z"/>
				<path fill="#034E96" d="M1058.4,2868.7c0,0-27.4-108-66.2-112.3c-38.9-4.3-149.8-36-159.9,17.3c-10.1,53.3,10.1,79.9,66.3,83.1
					c56.2,3.3,93.6,0,93.6,0l25.9,27.8C1018.1,2884.5,1059.8,2913.3,1058.4,2868.7z"/>
			</g>
		</g>
		<g>
			<g>
				<path fill="#97A6B7" d="M2276.1,1199.8l8.4,28.4c3.2,10.7,14.2,17,24.6,14l40.4-11.4c11,24.4,25.1,46.8,41.6,66.8l-30,31.1
					c-7.5,7.8-7.1,20.5,0.9,28.5l21.4,21.1c8.1,8,20.8,8.2,28.5,0.4l31.2-31.7c21.2,15.8,44.4,28.8,69.2,38.8l-11.1,44.8
					c-2.7,10.8,4.2,22.1,15.3,25.3l29.8,8.5c11.3,3.2,22.7-3,25.4-13.9l11.6-45.6c26.2,3.8,53.4,4.2,80.8,1l13.9,47.1
					c3.3,11.2,15.4,18.1,27,15.4l31.1-7.2c11.8-2.7,18.6-14.1,15.2-25.5l-14.1-47.6c26.3-9.9,50.7-23,72.6-39l37.5,35.3
					c9,8.5,23.6,8.7,32.5,0.4l23.8-22.2c9-8.4,8.9-22.2-0.3-30.7l-37.6-35.1c18-21.7,32.8-45.7,44.1-71.4l50.9,12.3
					c12.7,3.1,25.7-4,29-15.9l8.9-31.6c3.4-11.9-4.3-24-17.1-27l-50.2-11.7c4.3-27.8,4.6-56.5,0.5-85.4l48.9-13.8
					c12.8-3.6,20.4-16.2,16.8-28.1l-9.4-31.7c-3.5-11.9-16.8-18.5-29.5-14.7l-47.4,14c-11.6-27.3-27-52.2-45.5-74.2l33-33.6
					c9.2-9.3,9-23.6-0.3-31.9l-24.8-21.9c-9.3-8.2-24.1-7.3-33.1,2.1l-31.8,32.9c-24.1-17-50.5-30.4-78.5-39.9l10.6-41.8
					c3.1-12.1-4.3-23.8-16.5-26l-32.2-6c-12-2.3-24.2,5.6-27.1,17.6l-10.1,40.8c-28.8-2.3-58.2-0.5-87.4,5.5l-11.4-38.4
					c-3.4-11.3-15.3-17.3-26.7-13.4l-30.1,10.4c-11.3,3.9-17.7,16.1-14.3,27.3l11.3,38c-26.4,12.6-50.2,28.5-71.1,47l-28.4-26.4
					c-8.3-7.7-21.3-6.9-29,1.8l-20.5,23c-7.7,8.6-7.2,21.8,0.9,29.5l28.4,26.8c-15.7,22.7-28.2,47.3-37.1,73.2l-38.3-8.9
					c-10.7-2.5-21.4,4.4-23.8,15.5l-6.5,29.2c-2.4,10.9,4.2,21.9,14.8,24.5l38.9,9.4c-2.3,26.1-1.2,52.8,3.8,79.6l-39.3,11.6
					C2278.8,1178,2273,1189.1,2276.1,1199.8z M2415.4,1170.3c-32.2-108.6,29.3-224.9,140.6-260.8c115.3-37.2,239.5,25.3,273.7,141
					c34.2,115.6-36.2,234.5-153.6,264.6C2562.8,1344,2447.6,1278.8,2415.4,1170.3z"/>
				<polygon fill="#97A6B7" points="2653.5,761.3 2681.2,752 2698.2,774.2 				"/>
				<polygon fill="#97A6B7" points="2379.8,854.9 2347.7,864.8 2354.7,888.6 				"/>
				<polygon fill="#97A6B7" points="2291,1006 2259.2,1016.8 2272.6,1032.4 				"/>
				<polygon fill="#97A6B7" points="2286.5,1176.1 2254.8,1188.3 2270.1,1200.9 				"/>
				<polygon fill="#97A6B7" points="2406.4,1382.7 2376.3,1396.5 2364.8,1372 				"/>
				<polygon fill="#97A6B7" points="2561.2,1463 2534.5,1476.5 2526.1,1456.3 				"/>
				<polygon fill="#97A6B7" points="2717.4,1471.2 2741.5,1459.2 2710,1433.2 				"/>
				<polygon fill="#97A6B7" points="2846.8,1403.2 2874.6,1388.3 2843.6,1367.4 				"/>
				<polygon fill="#97A6B7" points="2856.1,824.6 2825.5,834.7 2844.4,853.6 				"/>
				<polygon fill="#97A6B7" points="2989.1,1048.3 2962,1060.9 2957.4,1037.1 				"/>
				<polygon fill="#97A6B7" points="2978.5,1235.6 2952.2,1248.3 2944.5,1230.6 				"/>
			</g>
			<path fill="#D8DEE8" d="M2245.1,1212l8.5,28.7c3.2,10.8,14.3,17.1,24.8,14.1l40.8-11.5c11.1,24.6,25.3,47.2,42,67.4l-30.3,31.4
				c-7.6,7.9-7.2,20.7,0.9,28.7l21.6,21.3c8.1,8,21,8.2,28.7,0.4l31.5-32c21.4,15.9,44.8,29.1,69.7,39.1l-11.2,45.1
				c-2.7,10.9,4.2,22.3,15.4,25.5l30,8.6c11.4,3.2,22.8-3,25.6-14l11.7-46c26.5,3.8,53.8,4.3,81.4,1l14.1,47.4
				c3.3,11.3,15.5,18.3,27.2,15.5l31.3-7.3c11.9-2.8,18.8-14.3,15.4-25.7l-14.2-48c26.5-9.9,51.1-23.2,73.2-39.3l37.8,35.6
				c9.1,8.6,23.8,8.8,32.7,0.4l24-22.4c9.1-8.5,8.9-22.3-0.3-31l-38-35.4c18.1-21.8,33.1-46.1,44.5-71.9l51.3,12.4
				c12.8,3.1,25.9-4.1,29.3-16l9-31.9c3.4-12-4.4-24.2-17.3-27.2l-50.6-11.7c4.3-28.1,4.7-57,0.6-86.1l49.3-13.9
				c12.9-3.7,20.5-16.4,17-28.4l-9.5-31.9c-3.6-12-16.9-18.7-29.8-14.9l-47.8,14.1c-11.7-27.6-27.2-52.6-45.8-74.8l33.3-33.9
				c9.2-9.4,9.1-23.8-0.3-32.1l-25-22.1c-9.4-8.3-24.3-7.3-33.4,2.1l-32.1,33.2c-24.3-17.1-51-30.7-79.1-40.3l10.7-42.1
				c3.1-12.2-4.4-23.9-16.6-26.3l-32.4-6.1c-12.1-2.3-24.4,5.7-27.4,17.8l-10.2,41.1c-29-2.3-58.6-0.5-88.1,5.6l-11.5-38.7
				c-3.4-11.4-15.5-17.4-27-13.5l-30.4,10.5c-11.3,3.9-17.8,16.3-14.5,27.6l11.3,38.3c-26.6,12.7-50.6,28.7-71.7,47.4l-28.6-26.7
				c-8.3-7.8-21.4-6.9-29.2,1.8l-20.6,23.2c-7.7,8.7-7.3,22,0.9,29.7l28.7,27c-15.8,22.9-28.4,47.7-37.4,73.8l-38.6-9
				c-10.8-2.5-21.5,4.5-24,15.6l-6.6,29.4c-2.5,11,4.2,22.1,14.9,24.7l39.2,9.5c-2.4,26.3-1.2,53.3,3.8,80.2l-39.6,11.7
				C2247.8,1189.9,2241.9,1201.2,2245.1,1212z M2385.5,1182.1c-32.4-109.5,29.5-226.7,141.8-263c116.2-37.5,241.5,25.5,276,142.1
				c34.5,116.5-36.5,236.4-154.9,266.8C2534.1,1357.3,2418,1291.6,2385.5,1182.1z"/>
		</g>
		<g>
			<g>
				<g>
					<path fill="#97A6B7" d="M304.9,1492.5l21.4,72.3c8.1,27.2,36,43.2,62.5,35.7l102.8-29.1c27.9,62,63.7,118.9,105.8,169.8
						l-76.4,79.1c-19.2,19.9-18.2,52.2,2.3,72.4l54.5,53.7c20.5,20.3,53,20.7,72.4,0.9l79.3-80.6c53.8,40.1,113,73.3,175.8,98.5
						L877.1,2079c-6.8,27.5,10.6,56.2,38.9,64.3l75.7,21.6c28.6,8.2,57.6-7.6,64.6-35.3l29.4-115.9c66.7,9.6,135.6,10.7,205.3,2.4
						l35.4,119.6c8.4,28.5,39.1,46,68.6,39.2l79-18.4c29.9-6.9,47.3-35.9,38.7-64.7l-35.8-120.9c66.9-25.1,128.7-58.6,184.6-99
						l95.3,89.8c23,21.6,59.9,22.2,82.5,1.1l60.5-56.4c22.9-21.3,22.5-56.3-0.8-78.1l-95.7-89.1c45.6-55,83.4-116.1,112-181.4
						l129.4,31.3c32.3,7.8,65.3-10.2,73.8-40.4l22.6-80.4c8.5-30.3-11-61.1-43.5-68.7l-127.5-29.6c10.9-70.7,11.8-143.7,1.4-217
						l124.2-35.1c32.6-9.2,51.8-41.2,42.8-71.5l-23.8-80.5c-9-30.3-42.6-47-75.1-37.5L1919,963.9c-29.5-69.5-68.7-132.7-115.5-188.6
						l84-85.4c23.3-23.7,22.9-60-0.8-81l-62.9-55.7c-23.6-20.9-61.3-18.5-84.2,5.2l-80.8,83.7c-61.2-43.2-128.4-77.4-199.5-101.5
						l26.9-106.2c7.8-30.7-11-60.4-41.9-66.2l-81.8-15.4c-30.6-5.7-61.4,14.3-68.9,44.8l-25.7,103.6c-73.1-5.8-147.8-1.3-222.1,14.1
						l-28.9-97.6c-8.5-28.8-39-44-68-33.9l-76.6,26.5c-28.6,9.9-44.9,41-36.4,69.5l28.6,96.6c-67,31.9-127.5,72.4-180.7,119.4
						l-72.1-67.2c-21-19.6-54-17.5-73.7,4.6l-52,58.4c-19.5,21.9-18.4,55.3,2.3,74.9l72.3,68.1c-39.9,57.6-71.7,120.3-94.3,186.1
						l-97.3-22.6c-27.2-6.3-54.3,11.3-60.5,39.3l-16.6,74.2c-6.2,27.8,10.6,55.6,37.6,62.2l98.8,23.9c-6,66.4-3.1,134.3,9.6,202.2
						l-99.8,29.4C311.6,1437,296.8,1465.4,304.9,1492.5z M658.9,1417.4c-81.8-276,74.4-571.5,357.4-662.9
						c293-94.6,608.7,64.4,695.7,358.2c87,293.8-92.1,596-390.4,672.4C1033.5,1859,740.7,1693.4,658.9,1417.4z"/>
					<polygon fill="#97A6B7" points="1264,378 1334.3,354.5 1377.6,410.9 					"/>
					<polygon fill="#97A6B7" points="568.4,616 486.7,641.1 504.6,701.5 					"/>
					<polygon fill="#97A6B7" points="342.6,999.9 261.9,1027.4 295.9,1067.1 					"/>
					<polygon fill="#97A6B7" points="331.2,1432.2 250.7,1463.2 289.5,1495.2 					"/>
					<polygon fill="#97A6B7" points="636,1957.3 559.4,1992.5 530.2,1930.1 					"/>
					<polygon fill="#97A6B7" points="1029.5,2161.4 961.5,2195.7 940,2144.3 					"/>
					<polygon fill="#97A6B7" points="1426.4,2182.3 1487.5,2151.8 1407.6,2085.8 					"/>
					<polygon fill="#97A6B7" points="1755.2,2009.4 1825.8,1971.6 1747,1918.6 					"/>
					<polygon fill="#97A6B7" points="1778.7,539 1701.1,564.6 1749,612.6 					"/>
					<polygon fill="#97A6B7" points="2116.8,1107.5 2048.1,1139.4 2036.4,1078.9 					"/>
					<polygon fill="#97A6B7" points="2089.9,1583.4 2023.1,1615.7 2003.6,1570.8 					"/>
				</g>
				<path fill="#D8DEE8" d="M225.9,1523.4l21.6,72.9c8.1,27.4,36.3,43.5,63,36l103.6-29.3c28.1,62.5,64.2,119.9,106.7,171.2
					l-77,79.7c-19.3,20-18.3,52.7,2.3,73L501,1981c20.7,20.4,53.4,20.9,73,0.9l80-81.3c54.3,40.5,113.9,73.9,177.2,99.3l-28.4,114.7
					c-6.9,27.7,10.7,56.7,39.2,64.8l76.4,21.7c28.9,8.2,58.1-7.7,65.1-35.6l29.6-116.9c67.2,9.7,136.7,10.8,207,2.4l35.7,120.6
					c8.5,28.7,39.5,46.4,69.2,39.5l79.6-18.5c30.1-7,47.7-36.2,39.1-65.3l-36.1-121.9c67.4-25.3,129.8-59,186.1-99.8l96.1,90.5
					c23.2,21.8,60.4,22.3,83.2,1.1l61-56.9c23.1-21.5,22.7-56.8-0.8-78.7l-96.5-89.9c46-55.5,84.1-117.1,113-182.8l130.5,31.6
					c32.5,7.9,65.9-10.3,74.4-40.7l22.8-81.1c8.6-30.6-11.1-61.6-43.9-69.2l-128.6-29.9c11-71.3,11.9-144.9,1.4-218.8l125.2-35.4
					c32.8-9.3,52.2-41.6,43.1-72.1l-24-81.1c-9-30.5-43-47.4-75.7-37.8l-121.6,35.8c-29.7-70-69.2-133.8-116.5-190.1l84.7-86.1
					c23.5-23.9,23.1-60.4-0.8-81.6l-63.5-56.2c-23.8-21.1-61.8-18.6-84.9,5.3l-81.5,84.4c-61.7-43.5-129.5-78-201.1-102.3
					l27.2-107.1c7.9-31-11.1-60.9-42.3-66.7l-82.4-15.5c-30.8-5.8-61.9,14.4-69.5,45.1L1196.9,524c-73.7-5.8-149-1.4-223.9,14.2
					l-29.2-98.4c-8.6-29-39.3-44.3-68.5-34.2l-77.2,26.8c-28.8,10-45.3,41.4-36.7,70.1l28.8,97.3c-67.6,32.2-128.6,73-182.2,120.4
					l-72.7-67.8c-21.2-19.8-54.5-17.6-74.3,4.6L408.5,716c-19.6,22-18.6,55.8,2.3,75.5l72.9,68.6c-40.2,58.1-72.3,121.3-95.1,187.6
					l-98.1-22.8c-27.4-6.4-54.7,11.4-61,39.6l-16.7,74.8c-6.3,28,10.7,56.1,37.9,62.7l99.6,24.1c-6,66.9-3.1,135.4,9.6,203.9
					l-100.6,29.6C232.8,1467.5,217.8,1496,225.9,1523.4z M582.9,1447.7c-82.4-278.2,75.1-576.2,360.4-668.3
					c295.4-95.4,613.7,64.9,701.5,361.1c87.7,296.2-92.8,600.8-393.6,677.9C960.6,1892.9,665.4,1725.9,582.9,1447.7z"/>
			</g>
			<g>
				<defs>
					<path id="SVGID_40_" d="M893.4,698V425.7h1013.9v880.7h-195.4c-31.5,296.4-283.7,531-590.3,531
						c-327.8,0-589.3-281.7-591.6-593.3C528.2,998.7,678.6,788.4,893.4,698z"/>
				</defs>
				<clipPath id="SVGID_41_">
					<use xlink:href="#SVGID_40_"  overflow="visible"/>
				</clipPath>
				<g clip-path="url(#SVGID_41_)">
					
						<linearGradient id="SVGID_42_" gradientUnits="userSpaceOnUse" x1="2068.7881" y1="836.3251" x2="2086.1326" y2="688.1086" gradientTransform="matrix(-1 0 0 1 3439.9712 0)">
						<stop  offset="0" style="stop-color:#FFC444"/>
						<stop  offset="0.9964" style="stop-color:#F36F56"/>
					</linearGradient>
					<path fill="url(#SVGID_42_)" d="M1422.6,787.7l-31-21.2c0,0-4.1-40.1-21.4-53.9c-17.2-13.8-63.9-28.6-69.2-6.1
						c-5.2,22.5,19,93.9,48.6,101.7s60,26.6,60,26.6L1422.6,787.7z"/>
					
						<linearGradient id="SVGID_43_" gradientUnits="userSpaceOnUse" x1="1874.3311" y1="1290.9818" x2="1938.6047" y2="741.7371" gradientTransform="matrix(-1 0 0 1 3439.9712 0)">
						<stop  offset="0" style="stop-color:#FF9085"/>
						<stop  offset="1" style="stop-color:#FB6FBB"/>
					</linearGradient>
					<path fill="url(#SVGID_43_)" d="M1288.1,866.1c0,0,91.2-21.6,162.4,48c71.1,69.7,154.8,181.1,162.2,165.1
						c7.5-16-134.2-195.9-223.4-248.4c11.2-33.7,35.6-70.1,35.6-70.1s412.6,116.6,401.8,308.4S1706.5,1289,1677,1289
						s-103.3,36.5-310.2-60.9C1159.9,1130.6,1288.1,866.1,1288.1,866.1z"/>
					<g>
						
							<linearGradient id="SVGID_44_" gradientUnits="userSpaceOnUse" x1="1569.8112" y1="765.8246" x2="1644.3269" y2="901.582" gradientTransform="matrix(-0.8164 0.5775 0.5775 0.8164 2148.4175 -922.309)">
							<stop  offset="0" style="stop-color:#311944"/>
							<stop  offset="1" style="stop-color:#893976"/>
						</linearGradient>
						<path fill="url(#SVGID_44_)" d="M1246.4,736.5c-2.1-3-1.4-7.2,1.6-9.3l69-48.8c3-2.1,7.2-1.4,9.3,1.6l81.1,114.6
							c2.1,3,1.4,7.2-1.6,9.3l-69,48.8c-3,2.1-7.2,1.4-9.3-1.6L1246.4,736.5z"/>
						<g>
							
								<linearGradient id="SVGID_45_" gradientUnits="userSpaceOnUse" x1="1599.2527" y1="903.5284" x2="1697.1305" y2="903.5284" gradientTransform="matrix(-0.8164 0.5775 0.5775 0.8164 2148.4175 -922.309)">
								<stop  offset="0" style="stop-color:#311944"/>
								<stop  offset="1" style="stop-color:#893976"/>
							</linearGradient>
							<path fill="url(#SVGID_45_)" d="M1325.2,852.7c2.1,3,6.3,3.7,9.3,1.6l69-48.8c3-2.1,3.7-6.3,1.6-9.3L1324,681.6
								c-2.1-3-6.3-3.7-9.3-1.6l-69,48.8c-3,2.1-3.7,6.3-1.6,9.3L1325.2,852.7z"/>
							<path fill="#FFFFFF" d="M1324,836.5c2.1,3,6.3,3.7,9.3,1.6l55.3-39.1c3-2.1,3.7-6.3,1.6-9.3l-66.6-94.1
								c-2.1-3-6.3-3.7-9.3-1.6l-55.3,39.1c-3,2.1-3.7,6.3-1.6,9.3L1324,836.5z"/>
							<path fill="#FFFFFF" d="M1275.8,715c0.7,1,2.1,1.3,3.2,0.5l14.6-10.3c1-0.7,1.3-2.1,0.5-3.2l-0.6-0.9c-0.7-1-2.1-1.3-3.2-0.5
								l-14.6,10.3c-1,0.7-1.3,2.1-0.5,3.2L1275.8,715z"/>
						</g>
					</g>
					
						<linearGradient id="SVGID_46_" gradientUnits="userSpaceOnUse" x1="6681.1489" y1="2626.3401" x2="6747.2324" y2="2489.5632" gradientTransform="matrix(-0.9925 0.1225 0.1225 0.9925 7403.4629 -162.6817)">
						<stop  offset="0" style="stop-color:#FFC444"/>
						<stop  offset="0.9964" style="stop-color:#F36F56"/>
					</linearGradient>
					<path fill="url(#SVGID_46_)" d="M1077.2,3174.2l6.1,68.9c-1.7,3.3-22.2,13.3-38.5,4.7l-15.5-67.7L1077.2,3174.2z"/>
					
						<linearGradient id="SVGID_47_" gradientUnits="userSpaceOnUse" x1="6360.4536" y1="1862.214" x2="6520.4868" y2="1862.214" gradientTransform="matrix(-0.9642 0.2651 0.2651 0.9642 7323.3745 -308.9189)">
						<stop  offset="0" style="stop-color:#444B8C"/>
						<stop  offset="0.9964" style="stop-color:#26264F"/>
					</linearGradient>
					<path fill="url(#SVGID_47_)" d="M1535.6,3174.6c-9.9,10.9-12.1,31-3.5,40.9c8.4,9.7,21.1,2.4,57.1,3.5
						c38.5,1.2,48.6,10.3,74.8,3c10.6-2.9,29.3-10,28.9-17.6c-0.2-5.3-9.8-8.1-41.5-18.7c-45.1-15.1-44.9-15.9-54.5-17.5
						C1572.8,3164.2,1548.6,3160.2,1535.6,3174.6z"/>
					
						<linearGradient id="SVGID_48_" gradientUnits="userSpaceOnUse" x1="6310.1118" y1="2219.8013" x2="6377.5981" y2="2080.1204" gradientTransform="matrix(-0.9802 0.1979 0.1979 0.9802 7334.5845 -227.1835)">
						<stop  offset="0" style="stop-color:#FFC444"/>
						<stop  offset="0.9964" style="stop-color:#F36F56"/>
					</linearGradient>
					<path fill="url(#SVGID_48_)" d="M1560.3,3111.7l19.3,64.3c-1.5,3.5-21.1,15-38,7.7l-28.7-62.4L1560.3,3111.7z"/>
					
						<linearGradient id="SVGID_49_" gradientUnits="userSpaceOnUse" x1="-3498.791" y1="2912.3025" x2="-3925.6292" y2="1950.1078" gradientTransform="matrix(1 0 0 1 5130.5244 0)">
						<stop  offset="0" style="stop-color:#AB316D"/>
						<stop  offset="1" style="stop-color:#792D3D"/>
					</linearGradient>
					<path fill="url(#SVGID_49_)" d="M1388.5,1703.2c2.8,216.1,17.5,459.2,52.9,723.2c35,260.9,84,496.7,137.5,704.1
						c-24.7,6.6-49.3,13.3-74,19.9c-62.6-58.4-141.5-150.2-179.6-280c-23.6-80.6-15.8-122-30.8-221.1
						c-23.9-157.8-72.2-240.5-122.2-367.7c-44.9-114.3-98-282.1-126.5-506.4C1160,1751.2,1274.3,1727.2,1388.5,1703.2z"/>
					
						<linearGradient id="SVGID_50_" gradientUnits="userSpaceOnUse" x1="-3498.791" y1="2912.3027" x2="-3925.6289" y2="1950.1085" gradientTransform="matrix(1 0 0 1 5130.5244 0)">
						<stop  offset="0" style="stop-color:#AB316D"/>
						<stop  offset="1" style="stop-color:#792D3D"/>
					</linearGradient>
					<path opacity="0.3" fill="url(#SVGID_50_)" d="M1406.9,2741c-24.8-68.4-54.9-89.4-68.3-161.1c-11.7-62.5,4.4-82.8,4.9-146.5
						c1-126.9-62-168.9-83-273.4c-11.4-56.7,63-199.7,131.3-323.3c-1.6-45.6-2.7-90.2-3.2-133.6c-114.2,24-228.5,48-342.7,71.9
						c28.5,224.3,81.6,392.1,126.5,506.4c50,127.2,98.4,209.9,122.2,367.7c15,99.1,7.1,140.5,30.8,221.1
						c38.1,129.8,117,221.7,179.6,280c2.3-0.6,4.7-1.3,7-1.9c-63.1-82.2-82.7-152.1-85.5-207.3
						C1423.5,2884.1,1437.8,2826.5,1406.9,2741z"/>
					
						<linearGradient id="SVGID_51_" gradientUnits="userSpaceOnUse" x1="-4132.2236" y1="2407.6448" x2="-4559.0542" y2="1445.4669" gradientTransform="matrix(0.9925 -0.1225 0.1225 0.9925 5213.5293 108.1241)">
						<stop  offset="0" style="stop-color:#AB316D"/>
						<stop  offset="1" style="stop-color:#792D3D"/>
					</linearGradient>
					<path fill="url(#SVGID_51_)" d="M1151,1728.6c-15.1,274.9-27.5,554.9-36.9,839.8c-7.1,213.8-12.2,425-15.7,633.3
						c-25.2,3.1-50.4,6.2-75.6,9.3c-24.3-45.3-56.7-114.6-78.8-203.5c-26.9-107.9-20.7-171.9-32.5-283.8
						c-13.2-125.4-32.5-152.7-66.5-310.9c-69.1-321.1-103.7-481.6-26.6-581.4C843.4,1799.1,921.8,1717.8,1151,1728.6z"/>
					
						<linearGradient id="SVGID_52_" gradientUnits="userSpaceOnUse" x1="-4321.832" y1="1831.567" x2="-3827.1365" y2="1297.8174" gradientTransform="matrix(1 0 0 1 5130.5244 0)">
						<stop  offset="0" style="stop-color:#FF9085"/>
						<stop  offset="1" style="stop-color:#FB6FBB"/>
					</linearGradient>
					<path fill="url(#SVGID_52_)" d="M802,909c65.2-18.3,160.7-39.8,277.7-46.4c172.5-9.7,258.8-14.1,309.4,25.6
						c157,123,8.2,562.5,64.2,793.5c47.1,194.3,48.8,197.7,48.8,197.7c11.1,21.7,29.2,51.9,22,87.9c-5.7,28.3-27.1,60.8-56.1,70.8
						c-60.4,20.8-95.1-75.8-195.3-105c-104.7-30.5-221.9,30-370.1,106.5c-94.3,48.7-126.5,79.7-159.6,64.3
						c-63.6-29.7-46.2-192.3-39.1-258.7C732.1,1581.3,763.9,1272.3,802,909z"/>
					
						<linearGradient id="SVGID_53_" gradientUnits="userSpaceOnUse" x1="-4289.0376" y1="1861.9613" x2="-3794.3418" y2="1328.2112" gradientTransform="matrix(1 0 0 1 5130.5244 0)">
						<stop  offset="0" style="stop-color:#FF9085"/>
						<stop  offset="1" style="stop-color:#FB6FBB"/>
					</linearGradient>
					<path opacity="0.3" fill="url(#SVGID_53_)" d="M1419.1,1945.3c-17-29.5-16.3-74.2-53.7-95.2c-21.8-12.3-38.8-6.5-68.3-7.3
						c-88.1-2.4-105-57.8-166-61c-94.4-5-139.8,123.5-192.8,105c-34.6-12.1-56.9-81.3-39.1-134.3c24.9-73.8,110.3-63.7,222.1-163.5
						c47.8-42.7,116.5-119.8,97.6-153.8c-19.8-35.6-113.7,16.7-183.1-36.6c-40.5-31.1-35.3-69.5-68.3-139.1
						c-17.9-37.7-83.5-135.8-181-202c-31.4,299.9-58.3,560.6-82.6,787.8c-7.1,66.4-24.6,229.1,39.1,258.7
						c33,15.4,65.2-15.6,159.6-64.3c148.2-76.5,265.4-137,370.1-106.5c100.2,29.1,134.8,125.8,195.3,105
						c18.9-6.5,34.4-22.5,44.6-40.6C1458.6,1987.7,1431.9,1967.6,1419.1,1945.3z"/>
					<g>
						
							<linearGradient id="SVGID_54_" gradientUnits="userSpaceOnUse" x1="-3643.498" y1="2942.0989" x2="-3626.0645" y2="2477.7251" gradientTransform="matrix(0.917 0.3988 -0.3988 0.917 5530.1289 -184.8945)">
							<stop  offset="0" style="stop-color:#FFC444"/>
							<stop  offset="0.9964" style="stop-color:#F36F56"/>
						</linearGradient>
						<path fill="url(#SVGID_54_)" d="M1123.2,731.3c0.1,13.1,12,78.8-32,110.7c-44.4,32.1-100.2,30.4-116.8,34.5
							c-38.6,9.6-43.5,9.3-44.4,13.1c-4.2,18.7,101,82.3,209.7,67c66.5-9.4,127-47.3,123.3-67.3c-3.7-20.1-45.2-9.3-65-45.6
							c-13.8-25.2-23.3-61.1-5.1-90.7C1175.2,720,1140.9,764.5,1123.2,731.3z"/>
						<g>
							
								<linearGradient id="SVGID_55_" gradientUnits="userSpaceOnUse" x1="6309.4678" y1="2511.1228" x2="6178.9263" y2="2179.5715" gradientTransform="matrix(-0.9932 -0.1159 -0.1159 0.9932 7602.2134 -818.2575)">
								<stop  offset="0" style="stop-color:#311944"/>
								<stop  offset="1" style="stop-color:#6B3976"/>
							</linearGradient>
							<path fill="url(#SVGID_55_)" d="M1263.9,728.6c18.8-19.5,24.3-56.9,8.5-82.8c-13.6-22.3-38.5-28.3-53.3-31.8
								c-43.2-10.3-100.6,1.3-124.6,39.3c-14.3,22.5,4.4,75.1,7.2,84.4c3.2,10.6,10.6,15,17.1,23.5c8.9,11.8,22.7,30.5,45.3,61.8
								c3-8.1,7.3-18,13.5-28.5c2.4-4.1,11.9-19.9,25-32.4C1228.6,737,1246.1,747.1,1263.9,728.6z"/>
							
								<linearGradient id="SVGID_56_" gradientUnits="userSpaceOnUse" x1="-4813.9258" y1="1929.1656" x2="-4819.9287" y2="2412.7964" gradientTransform="matrix(0.9985 5.490000e-02 -5.490000e-02 0.9985 6098.6484 -941.7688)">
								<stop  offset="0" style="stop-color:#FFC444"/>
								<stop  offset="0.9964" style="stop-color:#F36F56"/>
							</linearGradient>
							<path fill="url(#SVGID_56_)" d="M1129.8,794.8c0,0,23.1,50.7,80.8,53.8c51.7,2.8,73.1-111.3,43.2-139.6
								c-9.9-9.5-31.4-15.5-49.8-12.6c-10.9,1.7-15,5.6-32.8,8c-16.4,2.2-20.7-0.1-26,3.4c-6.6,4.3-12.5,16.2-6.5,51
								c-8.6-11.1-19.9-16.3-28.7-13.4c-1.4,0.5-5.2,2.4-7.6,5.8C1093.7,763.6,1103.6,781.8,1129.8,794.8z"/>
							
								<linearGradient id="SVGID_57_" gradientUnits="userSpaceOnUse" x1="6269.5884" y1="2526.9983" x2="6138.9146" y2="2195.1111" gradientTransform="matrix(-0.9932 -0.1159 -0.1159 0.9932 7602.2134 -818.2575)">
								<stop  offset="0" style="stop-color:#311944"/>
								<stop  offset="1" style="stop-color:#6B3976"/>
							</linearGradient>
							<path fill="url(#SVGID_57_)" d="M1143.8,700.6c2.3,2.1-6.4,10.5-8.6,23.5c-4.2,25.2,17.8,58.7,43.7,64.5
								c15.3,3.4,20.7-5.4,46.6-5c16,0.2,29,3.8,37.1,6.6c4.7,28.8-6.2,55.6-26.3,66.2c-21.7,11.4-46.2,0-56.5-4.8
								c-6.9-3.2-28.9-13.5-38.3-35.9c-9.8-23.4,4-35.1-8.5-51.6c-6.3-8.3-15.4-12.7-22.9-28.3c-2-4.2-3.3-7.9-4-10.4
								C1120.9,712.9,1140.5,697.5,1143.8,700.6z"/>
						</g>
					</g>
					
						<linearGradient id="SVGID_58_" gradientUnits="userSpaceOnUse" x1="2388.3088" y1="780.4692" x2="2395.6018" y2="718.1473" gradientTransform="matrix(-0.9306 -0.366 -0.366 0.9306 3855.906 909.7155)">
						<stop  offset="0" style="stop-color:#FFC444"/>
						<stop  offset="0.9964" style="stop-color:#F36F56"/>
					</linearGradient>
					<path fill="url(#SVGID_58_)" d="M1385.4,760.4c0,0-11-0.3-16.5,6s-32.4-12.2-42.6-32.9c-10.3-20.7,2.4-42.3,11.6-37.8
						c9.2,4.5,55.8,21.7,49.1,62.5L1385.4,760.4z"/>
					<path fill="#FFFFFF" d="M1416.8,1087.9c0,5.7-4.6,10.3-10.3,10.3h-91c-5.7,0-10.3-4.6-10.3-10.3l0,0c0-5.7,4.6-10.3,10.3-10.3
						h91C1412.1,1077.5,1416.8,1082.2,1416.8,1087.9L1416.8,1087.9z"/>
				</g>
			</g>
			<linearGradient id="SVGID_59_" gradientUnits="userSpaceOnUse" x1="1211.8192" y1="530.4399" x2="1150.907" y2="782.9709">
				<stop  offset="0" style="stop-color:#311944"/>
				<stop  offset="0.5554" style="stop-color:#6F2B60"/>
				<stop  offset="1" style="stop-color:#A03976"/>
			</linearGradient>
			<path fill="url(#SVGID_59_)" d="M1086.1,683.1c0,0,2.9,23.8,16.7,17.3c50.6-23.8,150.3-47.4,179.8-22c0,0,15.9-112.5-108.9-104.7
				c-51.7,3.2-76.9,25.6-89.1,49.3C1069.8,651.9,1086.1,683.1,1086.1,683.1z"/>
			<linearGradient id="SVGID_60_" gradientUnits="userSpaceOnUse" x1="1251.3234" y1="626.4211" x2="1176.5648" y2="746.3168">
				<stop  offset="0" style="stop-color:#FF9085"/>
				<stop  offset="1" style="stop-color:#FB6FBB"/>
			</linearGradient>
			<path fill="url(#SVGID_60_)" d="M1129.3,688.6c-3.2,0.8,44.5-31.6,44.5-31.6s46.1-28.5,130.2-14.5c42,7-22,35.9-22,35.9
				S1270.4,654.7,1129.3,688.6z"/>
			<g>
				<g>
					<g>
						<linearGradient id="SVGID_61_" gradientUnits="userSpaceOnUse" x1="1126.6819" y1="1427.3538" x2="1307.7018" y2="1419.4834">
							<stop  offset="0" style="stop-color:#AB316D"/>
							<stop  offset="1" style="stop-color:#792D3D"/>
						</linearGradient>
						<path fill="url(#SVGID_61_)" d="M1431,1518c-2.7,0.1-5-2-5.2-5c-4.6-53-20.2-102.5-44-139.4c-20.9-32.5-45.7-50.8-66.2-49.2
							c0,0,0,0-0.1,0c-74.1,6-89.4,197.5-89.6,199.5c-0.2,3.1-2.6,5.6-5.4,5.4c-2.7-0.1-4.8-2.7-4.5-5.9
							c0.6-8.3,16.3-203.7,99.5-210.5c0,0,0.1,0,0.1,0c24.3-1.9,51.6,17.5,74.8,53.5c24.8,38.4,41.1,89.9,45.8,144.8
							c0.3,3.2-1.8,6.1-4.7,6.6C1431.4,1518,1431.2,1518,1431,1518z"/>
						<linearGradient id="SVGID_62_" gradientUnits="userSpaceOnUse" x1="1112.6229" y1="1739.9753" x2="1276.243" y2="1739.9753">
							<stop  offset="0" style="stop-color:#FFC444"/>
							<stop  offset="0.9964" style="stop-color:#F36F56"/>
						</linearGradient>
						<path fill="url(#SVGID_62_)" d="M1122.6,1921.6l95,54.6l58.6-204.2l-96.2-268.2l-26.9,9.1l-40.4,387.7
							C1111.8,1909.2,1115.8,1917.7,1122.6,1921.6z"/>
						<linearGradient id="SVGID_63_" gradientUnits="userSpaceOnUse" x1="1156.1567" y1="1739.9752" x2="1276.243" y2="1739.9752">
							<stop  offset="0" style="stop-color:#FFC444"/>
							<stop  offset="0.9964" style="stop-color:#F36F56"/>
						</linearGradient>
						<path opacity="0.3" fill="url(#SVGID_63_)" d="M1276.2,1772l-96.2-268.2l-15.9,5.3c-2.2,36.2-1.2,65.8,0.3,87.3
							c6.4,91.7,27.5,116.6,17.3,181.2c-8.5,53.6-27.1,61.2-25.4,97c1.8,39,25.7,71.6,54.3,97.4l7.1,4.1L1276.2,1772z"/>
						<linearGradient id="SVGID_64_" gradientUnits="userSpaceOnUse" x1="1367.8881" y1="1708.9175" x2="1669.0579" y2="2216.3428">
							<stop  offset="0" style="stop-color:#FFC444"/>
							<stop  offset="0.9964" style="stop-color:#F36F56"/>
						</linearGradient>
						<polygon fill="url(#SVGID_64_)" points="1180.1,1503.8 1555.1,1503.9 1681.5,1933.7 1217.6,1976.2 						"/>
						<g opacity="0.3">
							<linearGradient id="SVGID_65_" gradientUnits="userSpaceOnUse" x1="1362.2247" y1="1657.0879" x2="1611.391" y2="2242.2517">
								<stop  offset="0" style="stop-color:#FFC444"/>
								<stop  offset="0.9964" style="stop-color:#F36F56"/>
							</linearGradient>
							<path fill="url(#SVGID_65_)" d="M1555.1,1503.9l-199.8,0c-3.3,5.6-7.6,14.6-8.5,25.8c-4.8,66.3,128.2,81.9,140.3,163.8
								c9.2,62.5-47.3,136-97.2,168.7c-51.9,34.1-86.7,17.6-121.2,54.8c-15,16.2-24.2,36.4-29.6,57.3l442.4-40.4L1555.1,1503.9z"/>
						</g>
						<linearGradient id="SVGID_66_" gradientUnits="userSpaceOnUse" x1="1405.4646" y1="1255.1464" x2="1322.2042" y2="1965.8353">
							<stop  offset="0" style="stop-color:#AB316D"/>
							<stop  offset="1" style="stop-color:#792D3D"/>
						</linearGradient>
						<path fill="url(#SVGID_66_)" d="M1291.5,1534.9c-2.3,0.1-4.4-1.5-4.9-4.1c-1-4.9-24.9-120.6,8.8-180.6
							c9.7-17.3,23.3-28.4,40.5-33.2c89.2-24.6,145.1,186.6,147.5,195.7c0.8,3.1-0.9,6.4-3.7,7.4c-2.8,1-5.7-0.6-6.5-3.7
							c-0.5-2.1-55.5-210.3-135.5-188.3c-14.5,4-25.5,13-33.7,27.7c-31.4,55.8-7.6,170.6-7.4,171.8c0.6,3-1.1,6.2-3.8,7.1
							C1292.3,1534.8,1291.9,1534.9,1291.5,1534.9z"/>
						<linearGradient id="SVGID_67_" gradientUnits="userSpaceOnUse" x1="1451.7642" y1="1231.1056" x2="1213.4705" y2="1684.4441">
							<stop  offset="0" style="stop-color:#AB316D"/>
							<stop  offset="1" style="stop-color:#792D3D"/>
						</linearGradient>
						<path fill="url(#SVGID_67_)" d="M1305.8,1535c0,8.8-6.4,16.3-14.2,16.7c-7.8,0.4-14.2-6.4-14.2-15.2c0-8.8,6.3-16.3,14.2-16.7
							C1299.4,1519.4,1305.8,1526.2,1305.8,1535z"/>
						<linearGradient id="SVGID_68_" gradientUnits="userSpaceOnUse" x1="1598.668" y1="1299.9243" x2="1353.7632" y2="1765.84">
							<stop  offset="0" style="stop-color:#AB316D"/>
							<stop  offset="1" style="stop-color:#792D3D"/>
						</linearGradient>
						<path fill="url(#SVGID_68_)" d="M1495.6,1523.5c0,9-6.7,16.7-14.9,17.1c-8.2,0.4-14.8-6.5-14.8-15.5s6.6-16.6,14.8-17.1
							C1488.9,1507.5,1495.6,1514.4,1495.6,1523.5z"/>
					</g>
				</g>
				<linearGradient id="SVGID_69_" gradientUnits="userSpaceOnUse" x1="1201.4644" y1="1337.3254" x2="1363.3231" y2="1337.3254">
					<stop  offset="0" style="stop-color:#FFC444"/>
					<stop  offset="0.9964" style="stop-color:#F36F56"/>
				</linearGradient>
				<path fill="url(#SVGID_69_)" d="M1202.1,1328.2c0,0,67.2-6.8,83.8-15.3c16.5-8.4,33-16.6,40.3,0c7.3,16.6,1,16.9,26.1,26.2
					s3.7,30.1-26.1,32.1c-29.8,2.1-71.9-25.1-110-1.8C1196.8,1343.3,1202.1,1328.2,1202.1,1328.2z"/>
				
					<linearGradient id="SVGID_70_" gradientUnits="userSpaceOnUse" x1="-4254.5015" y1="1524.2852" x2="-4182.9004" y2="912.4247" gradientTransform="matrix(1 0 0 1 5130.5244 0)">
					<stop  offset="0" style="stop-color:#FF9085"/>
					<stop  offset="1" style="stop-color:#FB6FBB"/>
				</linearGradient>
				<path fill="url(#SVGID_70_)" d="M927.2,983.6c-26.3-39.9-78.7-79.1-126.9-75.7C659.5,918.1,486,1297.2,605,1447.4
					c90.8,114.6,371.3,120.2,627.3-78.1c0-22,0-43.9,0-65.9c-126,22-230.4,36.7-307.6,46.4c-48.1,6.1-96,11.5-105-7.3
					c-13.5-28.5,82.9-69.3,119.6-175.7C944.4,1152,976.6,1058.6,927.2,983.6z"/>
			</g>
		</g>
	</g>
</g>
</svg>
