<?xml version="1.0" encoding="utf-8"?>
<!-- Generator: Adobe Illustrator 21.1.0, SVG Export Plug-In . SVG Version: 6.00 Build 0)  -->
<svg version="1.1" id="Capa_1" xmlns="http://www.w3.org/2000/svg" xmlns:xlink="http://www.w3.org/1999/xlink" x="0px" y="0px"
	 viewBox="0 0 627 178.5" enable-background="new 0 0 627 178.5" xml:space="preserve">
<g>
	<g>
		<path fill="#030B4A" d="M89.8,58.8c15.6,0.1,28.3,12.7,28.2,28.2c-0.1,15.5-12.9,28.2-28.3,28.2c-15.9-0.1-28.2-12.7-28.1-28.7
			C61.6,71,74.1,58.8,89.8,58.8z"/>
		<path fill="#030B4A" d="M523.6,66.2c-4,0-7.7,0.1-11.3-0.1c-0.6,0-1.5-0.8-1.8-1.4c-1.1-1.9-2.6-2.8-4.9-2.7c-5,0.1-10.1,0-15.2,0
			c-2.7,0-4.3,1.3-4.3,3.4c0,2.2,1.4,3.3,4.4,3.3c8,0,16,0,24,0c4.9,0,10,2.9,10.3,6.7c0.5,5.7,0.7,11.5-0.3,17.1
			c-0.9,5.3-5.9,6.9-10.8,7.5c-11,1.3-22.1,0.8-33-0.9c-5.2-0.8-7.6-4-7.6-9.2c0-2.1,0-4.2,0-6.6c3.6,0,7.1-0.1,10.5,0.1
			c0.5,0,1.2,1.1,1.5,1.8c0.9,2.8,2.6,4,5.6,3.9c5.4-0.2,10.8,0,16.2,0c2.8,0,4.4-1.7,4.4-4.3c0-2.4-1.1-3.3-4.2-3.3
			c-6.8,0-13.6,0.2-20.4-0.1c-3-0.1-6.1-1-9-2.1c-2.8-1-4-3.4-4-6.4c0-4.5,0-9.1,0-13.6c0.1-5.3,3-8.1,8.3-8.1c11.1,0,22.1,0,33.2,0
			c5.4,0,8.4,3,8.4,8.3C523.6,61.5,523.6,63.7,523.6,66.2z"/>
		<path fill="#030B4A" d="M276.6,53.7c13,0,25.8,0,38.6,0c1.5,0,3,0,4.4,0c5,0.2,8.4,3,9.1,8c0.7,5.2,0,10-3.3,13.8
			c1.6,2.6,3.9,4.9,4.7,7.7c1.3,4.5,0.4,9.1-2.2,13c-1,1.4-3.2,2.9-4.8,2.9c-15.4,0.2-30.8,0.1-46.5,0.1
			C276.6,84,276.6,69,276.6,53.7z M289.2,63.7c0,2.6,0,4.9,0,7.3c7.2,0,14.1,0,21.1,0c2.8,0,4.4-1.3,4.4-3.4c0-2.3-1.5-3.8-4.3-3.9
			c-3.7-0.1-7.5,0-11.2,0C295.8,63.7,292.5,63.7,289.2,63.7z M289.1,89.3c7,0,13.8,0,20.7,0c3,0,5-1.5,4.9-3.8
			c-0.1-2.1-1.9-3.5-5-3.5c-5.5,0-11,0-16.4,0c-1.4,0-2.7,0-4.2,0C289.1,84.6,289.1,86.8,289.1,89.3z"/>
		<path fill="#030B4A" d="M249.4,52.7c4.6,0,8.8,0,13.1,0c0,15.7,0,31.2,0,47.1c-6.6,0-13.1,0.1-19.6-0.1c-0.7,0-1.6-0.9-2.1-1.6
			c-6.1-8.1-12.1-16.2-18.1-24.2c-1-1.4-2.1-2.7-3.7-4.7c0,10.6,0,20.5,0,30.5c-4.7,0-9,0-13.5,0c0-15.4,0-30.8,0-46.4
			c6.6,0,13.2-0.1,19.8,0.1c0.8,0,1.7,1.1,2.3,1.8c6.5,8.5,12.9,17.1,19.3,25.7c0.6,0.8,1.3,1.5,2.4,2.8
			C249.4,72.9,249.4,62.9,249.4,52.7z"/>
		<path fill="#030B4A" d="M421.9,99.1c-4.5,0-8.7,0-13.1,0c0-15.5,0-30.8,0-46.4c0.9,0,1.7-0.1,2.5-0.1c12.5,0,25.1,0,37.6,0
			c3.1,0,6.1,0.6,8.1,2.9c1.4,1.6,2.6,3.8,2.8,5.8c0.4,3.7,0.3,7.5,0.1,11.2c-0.2,3.3-1.2,6.3-5.1,7.9c6.2,5.3,5.5,12.1,5,19.1
			c-4.4,0-8.8,0-13.5,0c0-2.6,0-5.1,0-7.6c0-3-1.1-4.1-4.1-4.1c-5.7,0-11.3,0.1-17,0c-2.4,0-3.6,0.8-3.4,3.3
			C422,93.8,421.9,96.4,421.9,99.1z M421.6,64.7c0,3.5,0,6.7,0,10c7.4,0,14.7,0.1,21.9,0c2.1,0,3.5-1.9,3.5-4.6
			c0.1-3-1.2-5.3-3.4-5.3C436.3,64.6,429,64.7,421.6,64.7z"/>
		<path fill="#030B4A" d="M341.5,52.8c4.8,0,9.2,0,13.9,0c0,1,0.1,1.9,0.1,2.8c0,9.1,0,18.1,0,27.2c0,4.1,0.8,4.9,4.8,4.9
			c5.5,0,11,0,16.5,0c4,0,5.3-1.3,5.3-5.3c0-9.1,0-18.3,0-27.4c0-0.9,0-1.9,0-3.1c4,0,7.7-0.1,11.5,0.1c0.5,0,1.4,0.9,1.4,1.3
			c0,12,0.2,24-0.4,36c-0.4,7.8-5.7,11.9-13.4,11.9c-6.9,0-13.8-0.1-20.6,0c-4.5,0.1-8.6-1.3-12.4-3.5c-4.5-2.6-6.7-6.5-6.7-11.8
			c0.1-10.1,0-20.2,0-30.3C341.5,54.8,341.5,53.9,341.5,52.8z"/>
		<path fill="#030B4A" d="M533.4,99.7c2.1-4.3,4-8.2,5.9-12.2c5.5-11.2,11-22.4,16.4-33.7c0.8-1.7,1.7-2.2,3.5-2.2
			c4.5,0.1,9.1,0,13.6,0.1c0.8,0,2,0.7,2.3,1.4c7.3,15.2,14.5,30.4,21.6,45.6c0.1,0.2,0,0.5,0.1,1c-4.8,0-9.6,0-14.4,0
			c-0.5,0-1-0.5-1.4-0.8c-0.2-0.2-0.4-0.6-0.5-0.9c-1.4-6-5.2-7.8-11.2-7.1c-4.6,0.6-9.4,0.2-14.1,0.1c-1.6,0-2.8,0.4-3.2,1.9
			c-1.7,6-5.6,8-11.6,7C538.4,99.3,536.1,99.7,533.4,99.7z M557.6,80c5.3,0,10.3,0,15.6,0c-2.8-5.4-5.4-10.4-8.3-15.9
			C562.3,69.7,560.1,74.7,557.6,80z"/>
		<path fill="#030B4A" d="M154,84.5c-8.2,0-16.1,0-24,0c-6.9,0-6.9,0-8.7-6.3c-2.6-8.7-7.3-15.9-15.3-20.6c-0.9-0.5-1.4-1.7-2.1-2.6
			c1-0.4,2.1-1.1,3.1-1.1c12.5-0.1,25.1-0.1,37.6,0c0.9,0,2.2,0.4,2.6,1C153.1,63.8,155.5,73.6,154,84.5z"/>
		<path fill="#030B4A" d="M56.3,50.8c0-6.3,0.1-12.5,0-18.8c0-1.6,0.5-2.5,1.8-3.3c8.3-4.9,17.3-7.1,27-6.4c1.6,0.1,2.1,0.6,2.1,2.2
			c-0.1,9-0.1,17.9,0,26.9c0,1.8-0.6,2.6-2.4,2.9c-10.7,2.2-19.4,7.3-25,17c-0.4,0.6-1.4,0.9-2,1.3c-0.4-0.9-1.2-1.7-1.2-2.6
			C56.3,63.7,56.3,57.3,56.3,50.8z"/>
		<path fill="#030B4A" d="M53.4,120.1c-6.4,0-12.7,0.1-19.1-0.1c-1,0-2.5-0.8-3-1.7c-5-8.2-7.1-17.3-6.4-26.9
			c0.1-1.5,0.8-1.9,2.1-1.9c9.1,0,18.1,0,27.2,0c1.7,0,2.4,0.6,2.8,2.3c1.7,8.5,5.4,15.9,12.1,21.6c1.3,1.1,2.9,2,4.2,3.1
			c0.8,0.7,1.4,1.6,2,2.4c-1,0.4-1.9,1.1-2.9,1.1C66.2,120.2,59.8,120.1,53.4,120.1z"/>
		<path fill="#030B4A" d="M122.8,122.8c0,6.3-0.1,12.5,0,18.8c0,1.8-0.6,2.9-2.1,3.8c-8.1,4.4-16.7,6.7-26,6.1
			c-1.9-0.1-2.5-0.8-2.5-2.7c0.1-8.8,0.1-17.6,0-26.4c0-1.9,0.6-2.8,2.5-3.1c10.7-2.1,19.2-7.3,24.8-16.9c0.4-0.7,1.5-0.9,2.2-1.4
			c0.3,0.7,0.9,1.5,0.9,2.2C122.8,109.7,122.8,116.3,122.8,122.8C122.8,122.8,122.8,122.8,122.8,122.8z"/>
		<path fill="#030B4A" d="M178.4,53.3c4.5,0,8.8,0,13.3,0c0,15.6,0,31.1,0,46.8c-4.5,0-8.8,0-13.3,0C178.4,84.5,178.4,69,178.4,53.3
			z"/>
		<path fill="#030B4A" d="M437.5,125.2c-1.6,0-2.9,0-4.2,0c-2.7-6.2-7.4-8.3-14-6.1c-2.2,0.7-3.7,2.2-3.9,4.7
			c-0.2,2.5,1.2,4,3.4,4.7c3.8,1.1,7.7,2.1,11.5,3.1c7.1,1.9,10.3,8.6,7,14.5c-2.7,4.9-9.1,7.1-17.2,5.7c-5.6-0.9-9.5-4.7-10.5-10.2
			c-0.1-0.4-0.2-0.8-0.3-1.5c1.4-0.2,2.8-0.4,4.1-0.6c3.2,7.6,8.9,10.4,16,7.8c3.1-1.1,4.6-3,4.6-5.6c-0.1-2.9-1.9-4.4-4.4-5.2
			c-4.3-1.4-8.7-2.4-12.9-3.9c-3.4-1.2-5.6-3.8-5.9-7.6c-0.2-4,1.5-7.1,5.1-9c1.5-0.8,3.3-1.5,4.9-1.5c3.2,0,6.5,0.1,9.5,1
			C434.8,116.8,437,120.3,437.5,125.2z"/>
		<path fill="#030B4A" d="M491.2,127.8c0.1-0.9,0.2-1.6,0.3-2.4c1.2,0,2.3,0,3.5,0c0.1,0.6,0.2,1.1,0.2,1.6
			c-0.1,8.4,0,16.7-0.2,25.1c-0.2,6.6-4.2,10.5-10.8,10.3c-2.6,0-5.4-0.6-7.8-1.6c-2.6-1-3.7-3.4-3.4-6.5c2.1,0.3,3.7,0.1,5,2.6
			c1.5,2.8,4.9,2.4,7.8,1.9c2.6-0.5,4.5-2.4,4.9-5.1c0.2-1.5,0-3,0-4.6c-1.9,0.8-3.5,2-5.3,2.3c-5.9,1.2-10.8-1.7-12.8-7.6
			c-1.4-4.3-1.2-8.6,0.5-12.8c2.5-6.1,10.3-8.3,15.8-4.7C489.8,126.8,490.4,127.2,491.2,127.8z M491.7,138.8
			c-0.5-2.3-0.8-4.3-1.5-6.1c-1.1-2.8-4.1-4.8-6.7-4.5c-3.1,0.3-5.3,1.9-6.4,5c-1.3,3.6-1.1,7.2,0.2,10.7c1,2.7,3.2,4.1,6,4.4
			c2.6,0.2,5-0.8,6.2-3.1C490.6,143.1,491.1,140.8,491.7,138.8z"/>
		<path fill="#030B4A" d="M448.1,139.4c-0.2,6.7,5.1,11,10.5,8.9c1.3-0.5,2.8-1.5,3.3-2.7c1.3-2.8,3.2-2.2,5.3-1.7
			c-0.3,3.6-3.5,7-7.3,7.9c-9.8,2.4-17.4-4.2-16.5-14.3c0.4-4.8,1.7-9.2,6.4-11.5c4.3-2.2,8.8-2.2,12.9,0.6c4.3,3,5.3,7.5,5.1,12.8
			c-3.4,0-6.6,0-9.9,0C454.7,139.4,451.5,139.4,448.1,139.4z M463.1,135.8c-0.1-4.7-3.4-8-7.5-7.8c-4.2,0.3-7.3,3.6-6.9,7.8
			C453.4,135.8,458.1,135.8,463.1,135.8z"/>
		<path fill="#030B4A" d="M571.4,138.5c0,5.2-1.2,9.9-6.3,12.4c-7.7,3.7-17.8,0.3-18.3-10.6c-0.5-9,3.1-14.7,9.9-15.5
			C565.9,123.7,571.4,128.8,571.4,138.5z M567.4,138.5c-0.1,0-0.3-0.1-0.4-0.1c-0.1-1.1-0.1-2.3-0.3-3.4c-0.7-3.8-3.6-6.5-7.2-6.8
			c-3.3-0.3-6.5,1.9-7.7,5.4c-1.2,3.5-1.1,7,0.2,10.4c1.1,2.9,3.3,4.5,6.2,4.8c2.9,0.3,5.5-0.8,6.9-3.3
			C566.3,143.3,566.7,140.8,567.4,138.5z"/>
		<path fill="#030B4A" d="M596,132c-1.4,0.1-2.6,0.2-3.8,0.3c-2-3.8-5-5.1-9.1-3.8c-1.6,0.5-3.2,1.3-2.8,3.2c0.3,1.2,1.5,2.6,2.6,3
			c2.8,1.1,5.8,1.8,8.7,2.6c3.1,0.9,5.3,2.5,5.5,6.1c0.2,3.4-1.4,6.5-4.6,7.8c-4.2,1.7-8.5,1.8-12.6-0.2c-2.8-1.3-4.1-3.8-4.6-7.1
			c1.5-0.1,2.7-0.3,3.9-0.4c2.2,4.8,5.8,6.5,10.3,4.9c1.9-0.7,3.2-1.8,3.3-3.9c0.1-2-1.5-2.8-3.2-3.3c-2.7-0.8-5.4-1.4-8-2.3
			c-4.1-1.3-5.7-3.4-5.6-7.1c0.1-3.3,2.2-5.8,5.9-6.7c3.4-0.8,6.9-0.7,10.2,0.8C594.6,127,595.8,128.9,596,132z"/>
		<path fill="#030B4A" d="M519.5,125.4c1.5,0,2.7,0,4.1,0c0,8.7,0,17.4,0,26.1c-2.3,0.5-4.2,0.6-3.9-3c-1,0.8-1.6,1.3-2.2,1.8
			c-3.4,2.6-7,2.7-10.8,1.1c-3.6-1.6-4.3-4.7-4.3-8.2c0-5.8,0-11.6,0-17.7c1.4,0,2.6,0,4.2,0c0,3.2,0,6.3,0,9.4
			c0,2.7-0.1,5.4,0.1,8.1c0.2,3.3,1.7,5.1,4.5,5.5c3.6,0.5,6.6-1,7.5-4.1c0.5-1.8,0.8-3.7,0.9-5.6
			C519.6,134.4,519.5,130,519.5,125.4z"/>
		<path fill="#030B4A" d="M535.3,151.5c-1.4,0-2.6,0-4,0c0-8.7,0-17.3,0-26.1c1.1,0,2.1,0,3.3,0c0.1,0.8,0.3,1.7,0.4,2.5
			c1.7-1.1,3.2-2.6,4.9-3c1.7-0.4,3.6,0.4,5.7,0.7c-0.7,1.8-1.2,2.9-1.7,4.1c-0.5-0.1-0.9-0.1-1.3-0.2c-3.6-1-6.1,0.3-6.7,4
			c-0.5,3.1-0.5,6.2-0.6,9.3C535.2,145.6,535.3,148.5,535.3,151.5z"/>
	</g>
</g>
</svg>
